<svg width="15" height="15" viewBox="0 0 15 15" fill="none" xmlns="http://www.w3.org/2000/svg">
<path d="M7.6688 12.3735C8.97111 13.029 10.4953 13.5088 12.2728 13.7323C12.8459 13.8043 13.3346 13.3437 13.3346 12.7661V11.4468C13.3346 10.9879 13.0223 10.5879 12.5772 10.4766L10.7173 10.0117C10.3765 9.92648 10.016 10.0263 9.76761 10.2747L7.6688 12.3735ZM7.6688 12.3735C5.20223 11.1321 3.53147 9.2608 2.44223 7.30843M2.44223 7.30843C1.45213 5.53376 0.94251 3.69213 0.752435 2.19573C0.681197 1.6349 1.13651 1.16602 1.70186 1.16602H3.01483C3.49151 1.16602 3.90193 1.50248 3.99541 1.9699L4.52134 4.59956C4.58692 4.92742 4.48429 5.26636 4.24787 5.50278L2.44223 7.30843Z" stroke="white" stroke-opacity="0.8" stroke-width="1.5"/>
</svg>
