<svg width="60" height="56" viewBox="0 0 60 56" fill="none" xmlns="http://www.w3.org/2000/svg">
<mask id="path-1-inside-1_33158_191" fill="white">
<path d="M23.3648 38.7044C23.3648 40.1631 22.4229 41.288 21.0281 41.6202V42.2898C21.0281 42.7752 20.6346 43.1688 20.1492 43.1688C19.6638 43.1688 19.2703 42.7752 19.2703 42.2898V41.5902C18.0345 41.2131 17.1328 40.0621 17.1328 38.7045C17.1328 38.219 17.5263 37.8256 18.0117 37.8256C18.4971 37.8256 18.8906 38.219 18.8906 38.7045C18.8906 39.3985 19.4552 39.963 20.1492 39.963C20.8218 39.963 21.6071 39.6334 21.6071 38.7044C21.6071 37.7754 20.8218 37.4459 20.1492 37.4459C18.2861 37.4459 16.9337 36.1772 16.9337 34.4294C16.9337 32.9706 17.8757 31.8457 19.2704 31.5135V30.8439C19.2704 30.3585 19.6639 29.965 20.1493 29.965C20.6347 29.965 21.0282 30.3585 21.0282 30.8439V31.5435C22.2642 31.9206 23.1657 33.0716 23.1657 34.4294C23.1657 34.9148 22.7722 35.3083 22.2868 35.3083C21.8014 35.3083 21.4079 34.9148 21.4079 34.4294C21.4079 33.7354 20.8433 33.1708 20.1492 33.1708C19.4768 33.1708 18.6915 33.5003 18.6915 34.4294C18.6915 35.3584 19.4768 35.6881 20.1492 35.6881C22.0124 35.6881 23.3648 36.9566 23.3648 38.7044ZM48.5118 34.5337C48.5118 39.9748 44.0851 44.4014 38.6441 44.4014C33.2031 44.4014 28.7764 39.9748 28.7764 34.5337C28.7764 29.0925 33.203 24.666 38.6441 24.666C44.0852 24.666 48.5118 29.0927 48.5118 34.5337ZM46.73 34.5337C46.73 30.075 43.1027 26.4477 38.6441 26.4477C34.1855 26.4477 30.5582 30.075 30.5582 34.5337C30.5582 38.9923 34.1855 42.6196 38.6441 42.6196C43.1027 42.6196 46.73 38.9923 46.73 34.5337ZM59.8828 52.7208C59.8828 53.5384 59.5659 54.3053 58.9908 54.8806C58.3954 55.4759 57.6132 55.7736 56.8311 55.7736C56.049 55.7736 55.2668 55.4759 54.6715 54.8806L45.4616 45.6706C43.4759 46.8906 41.1408 47.5953 38.6441 47.5953C38.2527 47.5953 37.8655 47.577 37.4828 47.543C35.8132 50.0502 33.3964 51.9644 30.29 53.2362C27.3953 54.4214 23.9835 55.0224 20.1492 55.0224C14.513 55.0224 9.72844 53.6963 6.31277 51.1872C2.20172 48.1673 0.117188 43.59 0.117188 37.5824C0.117188 33.1378 1.58988 28.7068 4.37625 24.7682C6.40113 21.906 9.10898 19.3427 12.1371 17.3913C11.3752 16.8603 10.8751 15.9783 10.8751 14.9813C10.8751 13.7215 11.6727 12.6448 12.7894 12.2289C12.7194 12.1513 12.6498 12.0745 12.5791 11.9957C9.45926 8.51969 8.36215 4.55992 10.0271 2.785C10.6134 2.15969 12.3626 1.0218 15.9914 3.83875C16.8945 1.57293 18.4395 0.226562 20.1491 0.226562C21.859 0.226562 23.4039 1.57305 24.3068 3.83863C27.9359 1.0218 29.6848 2.1598 30.2711 2.785C31.9361 4.56004 30.8389 8.51992 27.7191 11.9958C27.6484 12.0746 27.5783 12.1512 27.508 12.2287C28.625 12.6443 29.4231 13.7213 29.4231 14.9814C29.4231 15.9779 28.9237 16.8593 28.1625 17.3904C30.3033 18.7677 32.2809 20.4463 33.9769 22.3352C35.427 21.7785 37.0003 21.4724 38.644 21.4724C45.8461 21.4724 51.7055 27.3318 51.7055 34.5339C51.7055 37.0305 51.0009 39.3654 49.7809 41.3512L58.9908 50.5611C59.5661 51.1362 59.8828 51.9033 59.8828 52.7208ZM13.8872 10.8216C14.2662 11.2438 14.6338 11.6465 15.0036 12.0452H25.2768C25.6448 11.6613 26.0248 11.2518 26.4109 10.8216C29.3374 7.56121 29.6412 4.68273 28.989 3.98758C28.5593 3.52926 27.2517 3.7552 25.3001 5.29363C24.882 5.62328 24.3209 5.73355 23.7994 5.58848C23.2955 5.44832 22.9046 5.09769 22.7273 4.62695C22.1127 2.99699 21.1248 1.98438 20.1491 1.98438C19.1734 1.98438 18.1855 2.99711 17.5709 4.62719C17.3937 5.09769 17.0029 5.4482 16.4989 5.58836C15.9776 5.73367 15.4164 5.6234 14.998 5.29328C13.0466 3.75531 11.7391 3.52879 11.3092 3.98746C10.657 4.68273 10.9608 7.56109 13.8872 10.8216ZM12.6329 14.9813C12.6329 15.631 13.1616 16.1596 13.8112 16.1596H26.4871C27.1368 16.1596 27.6654 15.631 27.6654 14.9813C27.6654 14.3316 27.1368 13.803 26.4871 13.803H13.8112C13.1616 13.803 12.6329 14.3316 12.6329 14.9813ZM35.5473 47.2233C33.7668 46.7888 32.1284 45.9884 30.716 44.9064C28.1701 48.1299 24.2877 50.0288 20.1492 50.0288C12.7263 50.0288 6.6873 43.9898 6.6873 36.5669C6.6873 29.144 12.7263 23.105 20.1492 23.105C23.2709 23.105 26.2556 24.173 28.6533 26.1306C29.675 24.9177 30.913 23.8929 32.3074 23.116C30.3735 21.0484 28.0804 19.2671 25.6111 17.9174H14.6848C8.7307 21.1776 1.875 28.2316 1.875 37.5824C1.875 51.2271 13.3243 53.2645 20.1491 53.2645C27.1388 53.2645 32.5434 51.1293 35.5473 47.2233ZM25.5826 34.5338C25.5826 33.3856 26.1964 30.2768 26.4759 29.215C24.9711 27.5672 22.3948 26.8679 20.1492 26.8679C15.3796 27.552 10.4503 32.1879 10.4503 36.5668C10.4503 40.9456 16.25 45.5 20.1492 46.2657C23.0212 46.2657 26.6448 44.6504 28.0612 42.1797C27.1323 40.3853 25.5826 36.6899 25.5826 34.5338ZM27.6101 27.552C25.5141 25.8142 22.8933 24.8628 20.1492 24.8628C13.6955 24.8628 8.44512 30.1132 8.44512 36.5669C8.44512 43.0205 13.6956 48.271 20.1492 48.271C23.7778 48.271 27.1809 46.5923 29.3937 43.7459C28.9098 43.26 28.4644 42.7362 28.0612 42.1797C26.2588 44.7304 23.342 46.2657 20.1492 46.2657C13.4779 43.7459 11.25 41.75 10.4503 36.5668C10.4503 31.2188 16.9337 26.8679 20.1492 26.8679C22.5369 26.8679 24.8779 27.7653 26.6487 29.3677C26.9222 28.7352 27.2441 28.1284 27.6101 27.552ZM38.6441 45.8373C44.877 45.8373 49.9478 40.7665 49.9478 34.5338C49.9478 28.3008 44.877 23.2301 38.6441 23.2301C32.4113 23.2301 27.3404 28.3009 27.3404 34.5338C27.3404 40.7666 32.4113 45.8373 38.6441 45.8373ZM46.9134 44.6364L53.6896 51.4125L55.5231 49.579L48.7468 42.8029C48.1976 43.4729 47.5832 44.0871 46.9134 44.6364ZM58.125 52.7208C58.125 52.3728 57.9911 52.0472 57.7479 51.8039L56.766 50.822L54.9325 52.6555L55.9144 53.6375C56.4199 54.1429 57.2425 54.1429 57.7479 53.6375C57.9911 53.3944 58.125 53.0688 58.125 52.7208ZM43.6341 30.5711C43.2654 30.2553 42.7107 30.2978 42.3948 30.6664L37.3976 36.4964L34.8802 33.693C34.5559 33.3319 34.0002 33.302 33.639 33.6263C33.2779 33.9507 33.248 34.5062 33.5723 34.8674L36.759 38.4162C36.9258 38.602 37.1636 38.7079 37.4129 38.7079L37.423 38.7078C37.676 38.705 37.9155 38.593 38.0802 38.401L43.7295 31.8104C44.0454 31.4419 44.0026 30.8869 43.6341 30.5711Z"/>
</mask>
<path d="M21.0281 41.6202L20.333 38.7019L18.0281 39.2509V41.6202H21.0281ZM19.2703 41.5902H22.2703V39.3691L20.1459 38.7208L19.2703 41.5902ZM19.2704 31.5135L19.9656 34.4319L22.2704 33.8829V31.5135H19.2704ZM21.0282 31.5435H18.0282V33.7647L20.1528 34.4129L21.0282 31.5435ZM58.9908 54.8806L61.1119 57.0021L61.1123 57.0017L58.9908 54.8806ZM54.6715 54.8806L52.5501 57.0019L52.5502 57.0019L54.6715 54.8806ZM45.4616 45.6706L47.5829 43.5493L45.9086 41.8749L43.8911 43.1145L45.4616 45.6706ZM37.4828 47.543L37.7481 44.5548L35.9733 44.3972L34.9857 45.8802L37.4828 47.543ZM30.29 53.2362L29.1534 50.4599L29.1533 50.4599L30.29 53.2362ZM6.31277 51.1872L8.08883 48.7694H8.08883L6.31277 51.1872ZM4.37625 24.7682L1.92717 23.0356H1.92717L4.37625 24.7682ZM12.1371 17.3913L13.7622 19.913L17.5241 17.4887L13.8523 14.9299L12.1371 17.3913ZM12.7894 12.2289L13.8364 15.0403L17.9745 13.4991L15.0172 10.2198L12.7894 12.2289ZM12.5791 11.9957L14.812 9.99212L14.8117 9.99184L12.5791 11.9957ZM10.0271 2.785L12.2151 4.83749L12.2157 4.83693L10.0271 2.785ZM15.9914 3.83875L14.1518 6.20854L17.3018 8.65381L18.7782 4.94944L15.9914 3.83875ZM24.3068 3.83863L21.52 4.9493L22.9963 8.65352L26.1463 6.20851L24.3068 3.83863ZM30.2711 2.785L28.0827 4.83714L28.083 4.83741L30.2711 2.785ZM27.7191 11.9958L25.4865 9.99192L25.4862 9.99223L27.7191 11.9958ZM27.508 12.2287L25.2867 10.2123L22.3074 13.4944L26.4618 15.0403L27.508 12.2287ZM28.1625 17.3904L26.446 14.93L22.7747 17.4913L26.5393 19.9134L28.1625 17.3904ZM33.9769 22.3352L31.7446 24.3394L33.1242 25.8759L35.052 25.1359L33.9769 22.3352ZM49.7809 41.3512L47.2248 39.7807L45.9853 41.7982L47.6596 43.4725L49.7809 41.3512ZM58.9908 50.5611L56.8695 52.6824L56.8697 52.6826L58.9908 50.5611ZM13.8872 10.8216L11.6546 12.8254L11.6546 12.8255L13.8872 10.8216ZM15.0036 12.0452L12.8043 14.0855L13.6946 15.0452H15.0036V12.0452ZM25.2768 12.0452V15.0452H26.5565L27.4422 14.1214L25.2768 12.0452ZM26.4109 10.8216L24.1784 8.81767L24.1783 8.8177L26.4109 10.8216ZM28.989 3.98758L26.8005 6.03953L26.8011 6.04014L28.989 3.98758ZM25.3001 5.29363L23.4429 2.93762L23.4427 2.93775L25.3001 5.29363ZM23.7994 5.58848L24.6034 2.69824L24.6033 2.69819L23.7994 5.58848ZM22.7273 4.62695L25.5348 3.56952L25.5344 3.56843L22.7273 4.62695ZM17.5709 4.62719L14.7638 3.56873L14.7633 3.56991L17.5709 4.62719ZM16.4989 5.58836L15.695 2.69807L15.6935 2.6985L16.4989 5.58836ZM14.998 5.29328L16.8564 2.93818L16.855 2.9371L14.998 5.29328ZM11.3092 3.98746L13.4973 6.03984L13.4979 6.03917L11.3092 3.98746ZM35.5473 47.2233L37.9254 49.0522L40.7334 45.4009L36.2586 44.3089L35.5473 47.2233ZM30.716 44.9064L32.5405 42.5249L30.1939 40.7272L28.3617 43.047L30.716 44.9064ZM28.6533 26.1306L26.7559 28.4544L29.0443 30.3228L30.9477 28.0634L28.6533 26.1306ZM32.3074 23.116L33.7676 25.7366L37.1196 23.8689L34.4983 21.0666L32.3074 23.116ZM25.6111 17.9174L27.0499 15.285L26.3775 14.9174H25.6111V17.9174ZM14.6848 17.9174V14.9174H13.9172L13.244 15.2861L14.6848 17.9174ZM26.4759 29.215L29.3771 29.9788L29.793 28.3987L28.6912 27.1921L26.4759 29.215ZM20.1492 46.2657L19.5712 49.2094L19.8575 49.2657H20.1492V46.2657ZM27.6101 27.552L30.1428 29.16L31.5591 26.9291L29.5248 25.2425L27.6101 27.552ZM29.3937 43.7459L31.7622 45.5871L33.3838 43.5011L31.5193 41.6289L29.3937 43.7459ZM26.6487 29.3677L24.6358 31.5921L27.7403 34.4014L29.4022 30.5585L26.6487 29.3677ZM46.9134 44.6364L45.011 42.3167L42.4508 44.4164L44.7921 46.7577L46.9134 44.6364ZM53.6896 51.4125L51.5682 53.5339L53.6896 55.6552L55.8109 53.5339L53.6896 51.4125ZM55.5231 49.579L57.6444 51.7003L59.7657 49.579L57.6444 47.4577L55.5231 49.579ZM48.7468 42.8029L50.8681 40.6815L48.5264 38.3399L46.4268 40.9009L48.7468 42.8029ZM57.7479 51.8039L59.8697 49.6831L59.8692 49.6826L57.7479 51.8039ZM56.766 50.822L58.8873 48.7007L56.766 46.5794L54.6447 48.7007L56.766 50.822ZM54.9325 52.6555L52.8111 50.5342L50.6898 52.6555L52.8111 54.7769L54.9325 52.6555ZM55.9144 53.6375L53.793 55.7588L53.7933 55.759L55.9144 53.6375ZM57.7479 53.6375L55.6271 51.5156L55.6266 51.5161L57.7479 53.6375ZM43.6341 30.5711L45.5861 28.2931L45.5858 28.2928L43.6341 30.5711ZM42.3948 30.6664L40.1171 28.7139L40.117 28.714L42.3948 30.6664ZM37.3976 36.4964L35.1654 38.5008L37.45 41.045L39.6753 38.4488L37.3976 36.4964ZM34.8802 33.693L37.1123 31.6886L37.1122 31.6884L34.8802 33.693ZM33.639 33.6263L31.6349 31.394L31.6345 31.3943L33.639 33.6263ZM33.5723 34.8674L35.8045 32.863L35.8043 32.8628L33.5723 34.8674ZM36.759 38.4162L38.9914 36.412L38.9912 36.4118L36.759 38.4162ZM37.4129 38.7079V41.7079H37.4303L37.4477 41.7077L37.4129 38.7079ZM37.423 38.7078L37.3897 35.708L37.3882 35.708L37.423 38.7078ZM38.0802 38.401L40.3579 40.3535L40.3579 40.3534L38.0802 38.401ZM43.7295 31.8104L41.4521 29.8575L41.4517 29.8579L43.7295 31.8104ZM20.3648 38.7044C20.3648 38.725 20.3632 38.7372 20.3624 38.742C20.3616 38.7468 20.3613 38.7461 20.3631 38.741C20.3649 38.7359 20.368 38.7285 20.3729 38.7196C20.3779 38.7108 20.3837 38.7022 20.3899 38.6945C20.3962 38.6868 20.4019 38.6812 20.406 38.6776C20.4102 38.6739 20.4118 38.6731 20.4098 38.6743C20.4066 38.6764 20.3837 38.6898 20.333 38.7019L21.7233 44.5386C24.4034 43.9002 26.3648 41.6188 26.3648 38.7044H20.3648ZM18.0281 41.6202V42.2898H24.0281V41.6202H18.0281ZM18.0281 42.2898C18.0281 41.1184 18.9778 40.1688 20.1492 40.1688V46.1688C22.2915 46.1688 24.0281 44.4321 24.0281 42.2898H18.0281ZM20.1492 40.1688C21.3207 40.1688 22.2703 41.1184 22.2703 42.2898H16.2703C16.2703 44.4321 18.007 46.1688 20.1492 46.1688V40.1688ZM22.2703 42.2898V41.5902H16.2703V42.2898H22.2703ZM20.1459 38.7208C20.1474 38.7213 20.1465 38.7213 20.1438 38.7194C20.1407 38.7172 20.1374 38.714 20.1348 38.7107C20.1325 38.7076 20.1323 38.7063 20.1327 38.7074C20.1328 38.708 20.133 38.7086 20.133 38.7088C20.1331 38.7091 20.1328 38.7079 20.1328 38.7045H14.1328C14.1328 41.4214 15.9351 43.7091 18.3947 44.4596L20.1459 38.7208ZM20.1328 38.7045C20.1328 39.8761 19.1829 40.8256 18.0117 40.8256V34.8256C15.8697 34.8256 14.1328 36.5619 14.1328 38.7045H20.1328ZM18.0117 40.8256C16.8405 40.8256 15.8906 39.8761 15.8906 38.7045H21.8906C21.8906 36.5619 20.1537 34.8256 18.0117 34.8256V40.8256ZM15.8906 38.7045C15.8906 41.0557 17.7987 42.963 20.1492 42.963V36.963C21.1117 36.963 21.8906 37.7413 21.8906 38.7045H15.8906ZM20.1492 42.963C20.9074 42.963 21.9353 42.7879 22.8638 42.1306C23.9283 41.377 24.6071 40.1548 24.6071 38.7044H18.6071C18.6071 38.5024 18.6532 38.2144 18.8132 37.9072C18.972 37.6023 19.1901 37.38 19.397 37.2335C19.7646 36.9733 20.0635 36.963 20.1492 36.963V42.963ZM24.6071 38.7044C24.6071 37.2539 23.9282 36.0317 22.8637 35.2782C21.9353 34.621 20.9074 34.4459 20.1492 34.4459V40.4459C20.0635 40.4459 19.7647 40.4356 19.3971 40.1754C19.1902 40.0289 18.972 39.8066 18.8133 39.5018C18.6532 39.1945 18.6071 38.9065 18.6071 38.7044H24.6071ZM20.1492 34.4459C20.0248 34.4459 19.9504 34.425 19.917 34.4124C19.8838 34.4 19.882 34.3927 19.8953 34.4052C19.9094 34.4184 19.9239 34.4385 19.9327 34.459C19.9417 34.48 19.9337 34.4754 19.9337 34.4294H13.9337C13.9337 38.0117 16.8126 40.4459 20.1492 40.4459V34.4459ZM19.9337 34.4294C19.9337 34.4087 19.9354 34.3965 19.9362 34.3917C19.937 34.3869 19.9372 34.3877 19.9354 34.3927C19.9337 34.3978 19.9306 34.4053 19.9256 34.4141C19.9207 34.423 19.9149 34.4315 19.9086 34.4392C19.9024 34.4469 19.8967 34.4526 19.8925 34.4562C19.8884 34.4598 19.8867 34.4606 19.8887 34.4594C19.892 34.4574 19.9148 34.444 19.9656 34.4319L18.5753 28.5952C15.8951 29.2336 13.9337 31.515 13.9337 34.4294H19.9337ZM22.2704 31.5135V30.8439H16.2704V31.5135H22.2704ZM22.2704 30.8439C22.2704 32.0154 21.3208 32.965 20.1493 32.965V26.965C18.0071 26.965 16.2704 28.7017 16.2704 30.8439H22.2704ZM20.1493 32.965C18.9779 32.965 18.0282 32.0154 18.0282 30.8439H24.0282C24.0282 28.7017 22.2916 26.965 20.1493 26.965V32.965ZM18.0282 30.8439V31.5435H24.0282V30.8439H18.0282ZM20.1528 34.4129C20.1513 34.4125 20.1521 34.4124 20.1548 34.4144C20.1579 34.4165 20.1612 34.4197 20.1637 34.423C20.166 34.4261 20.1663 34.4274 20.1659 34.4263C20.1657 34.4257 20.1656 34.4251 20.1655 34.4249C20.1655 34.4246 20.1657 34.4259 20.1657 34.4294H26.1657C26.1657 31.7126 24.3637 29.4247 21.9037 28.6741L20.1528 34.4129ZM20.1657 34.4294C20.1657 33.2579 21.1154 32.3083 22.2868 32.3083V38.3083C24.4291 38.3083 26.1657 36.5716 26.1657 34.4294H20.1657ZM22.2868 32.3083C23.4583 32.3083 24.4079 33.2579 24.4079 34.4294H18.4079C18.4079 36.5716 20.1446 38.3083 22.2868 38.3083V32.3083ZM24.4079 34.4294C24.4079 32.0784 22.5 30.1708 20.1492 30.1708V36.1708C19.1866 36.1708 18.4079 35.3924 18.4079 34.4294H24.4079ZM20.1492 30.1708C19.391 30.1708 18.3631 30.3459 17.4346 31.0033C16.3702 31.757 15.6915 32.9791 15.6915 34.4294H21.6915C21.6915 34.6313 21.6455 34.9193 21.4855 35.2264C21.3268 35.5312 21.1087 35.7536 20.9018 35.9001C20.5341 36.1604 20.2351 36.1708 20.1492 36.1708V30.1708ZM15.6915 34.4294C15.6915 35.8796 16.3701 37.1017 17.4345 37.8554C18.3629 38.5129 19.3908 38.6881 20.1492 38.6881V32.6881C20.2352 32.6881 20.5343 32.6985 20.902 32.9588C21.1088 33.1054 21.3269 33.3277 21.4856 33.6324C21.6455 33.9395 21.6915 34.2274 21.6915 34.4294H15.6915ZM20.1492 38.6881C20.2737 38.6881 20.3481 38.709 20.3816 38.7216C20.4148 38.7341 20.4166 38.7414 20.4033 38.7289C20.3892 38.7157 20.3747 38.6956 20.3659 38.675C20.3569 38.6539 20.3648 38.6584 20.3648 38.7044H26.3648C26.3648 35.1218 23.4854 32.6881 20.1492 32.6881V38.6881ZM45.5118 34.5337C45.5118 38.318 42.4282 41.4014 38.6441 41.4014V47.4014C45.742 47.4014 51.5118 41.6316 51.5118 34.5337H45.5118ZM38.6441 41.4014C34.86 41.4014 31.7764 38.318 31.7764 34.5337H25.7764C25.7764 41.6316 31.5462 47.4014 38.6441 47.4014V41.4014ZM31.7764 34.5337C31.7764 30.7494 34.8598 27.666 38.6441 27.666V21.666C31.5461 21.666 25.7764 27.4357 25.7764 34.5337H31.7764ZM38.6441 27.666C42.4284 27.666 45.5118 30.7495 45.5118 34.5337H51.5118C51.5118 27.4358 45.7421 21.666 38.6441 21.666V27.666ZM49.73 34.5337C49.73 28.4182 44.7596 23.4477 38.6441 23.4477V29.4477C41.4459 29.4477 43.73 31.7319 43.73 34.5337H49.73ZM38.6441 23.4477C32.5286 23.4477 27.5582 28.4182 27.5582 34.5337H33.5582C33.5582 31.7319 35.8423 29.4477 38.6441 29.4477V23.4477ZM27.5582 34.5337C27.5582 40.6492 32.5286 45.6196 38.6441 45.6196V39.6196C35.8423 39.6196 33.5582 37.3354 33.5582 34.5337H27.5582ZM38.6441 45.6196C44.7596 45.6196 49.73 40.6492 49.73 34.5337H43.73C43.73 37.3354 41.4459 39.6196 38.6441 39.6196V45.6196ZM56.8828 52.7208C56.8828 52.7312 56.8818 52.7376 56.8812 52.7409C56.8806 52.7442 56.8799 52.7457 56.8797 52.7462C56.8795 52.7468 56.8791 52.7476 56.8781 52.7491C56.8771 52.7506 56.8746 52.7542 56.8692 52.7595L61.1123 57.0017C62.2528 55.861 62.8828 54.33 62.8828 52.7208H56.8828ZM56.8697 52.7591C56.865 52.7637 56.862 52.7659 56.8606 52.7668C56.8591 52.7677 56.8575 52.7686 56.8555 52.7694C56.8509 52.7713 56.8424 52.7736 56.8311 52.7736V58.7736C58.3735 58.7736 59.9294 58.1844 61.1119 57.0021L56.8697 52.7591ZM56.8311 52.7736C56.8198 52.7736 56.8114 52.7713 56.8067 52.7694C56.8047 52.7686 56.8031 52.7677 56.8016 52.7668C56.8003 52.7659 56.7974 52.7638 56.7928 52.7593L52.5502 57.0019C53.7327 58.1845 55.2889 58.7736 56.8311 58.7736V52.7736ZM56.7928 52.7593L47.5829 43.5493L43.3403 47.7919L52.5501 57.0019L56.7928 52.7593ZM43.8911 43.1145C42.3625 44.0536 40.5687 44.5953 38.6441 44.5953V50.5953C41.7129 50.5953 44.5892 49.7276 47.0321 48.2267L43.8911 43.1145ZM38.6441 44.5953C38.3462 44.5953 38.0477 44.5814 37.7481 44.5548L37.2174 50.5312C37.6834 50.5726 38.1592 50.5953 38.6441 50.5953V44.5953ZM34.9857 45.8802C33.6851 47.8334 31.7702 49.3885 29.1534 50.4599L31.4267 56.0125C35.0227 54.5403 37.9413 52.2671 39.9798 49.2058L34.9857 45.8802ZM29.1533 50.4599C26.6908 51.4682 23.6791 52.0224 20.1492 52.0224V58.0224C24.2878 58.0224 28.0997 57.3747 31.4268 56.0125L29.1533 50.4599ZM20.1492 52.0224C14.9428 52.0224 10.8434 50.7929 8.08883 48.7694L4.53671 53.605C8.61349 56.5997 14.0831 58.0224 20.1492 58.0224V52.0224ZM8.08883 48.7694C4.89028 46.4198 3.11719 42.8278 3.11719 37.5824H-2.88281C-2.88281 44.3522 -0.486843 49.9147 4.53671 53.605L8.08883 48.7694ZM3.11719 37.5824C3.11719 33.812 4.36519 29.9783 6.82533 26.5008L1.92717 23.0356C-1.18542 27.4352 -2.88281 32.4637 -2.88281 37.5824H3.11719ZM6.82533 26.5008C8.61866 23.966 11.042 21.666 13.7622 19.913L10.512 14.8695C7.17601 17.0193 4.18361 19.8461 1.92717 23.0356L6.82533 26.5008ZM13.8523 14.9299C13.8565 14.9329 13.8608 14.9368 13.8653 14.9453C13.868 14.9503 13.8707 14.9568 13.8726 14.9645C13.8747 14.9726 13.8751 14.9789 13.8751 14.9813H7.87512C7.87512 17.0058 8.89372 18.7876 10.4219 19.8526L13.8523 14.9299ZM13.8751 14.9813C13.8751 14.9846 13.8743 14.993 13.8711 15.003C13.8681 15.0121 13.8645 15.0186 13.8617 15.0225C13.858 15.0277 13.8518 15.0345 13.8364 15.0403L11.7423 9.41756C9.49316 10.2552 7.87512 12.4246 7.87512 14.9813H13.8751ZM15.0172 10.2198C14.9418 10.1361 14.8795 10.0673 14.812 9.99212L10.3463 13.9993C10.4201 14.0816 10.497 14.1666 10.5615 14.238L15.0172 10.2198ZM14.8117 9.99184C13.4881 8.51715 12.7061 7.05666 12.3999 5.95142C12.061 4.72826 12.4342 4.60399 12.2151 4.83749L7.83916 0.732514C5.95512 2.74094 6.04435 5.48401 6.61773 7.55346C7.22378 9.74084 8.55026 11.9982 10.3465 13.9996L14.8117 9.99184ZM12.2157 4.83693C12.1662 4.88972 12.1057 4.93925 12.0309 4.97641C11.9438 5.01966 11.8872 5.021 11.901 5.02085C11.9424 5.0204 12.6394 5.03453 14.1518 6.20854L17.831 1.46896C15.7145 -0.173986 13.7226 -0.99938 11.8356 -0.978796C9.86123 -0.957259 8.54422 -0.0194792 7.83864 0.733068L12.2157 4.83693ZM18.7782 4.94944C19.0946 4.15552 19.4609 3.6863 19.7362 3.44685C19.9922 3.22427 20.1276 3.22656 20.1491 3.22656V-2.77344C16.6843 -2.77344 14.3293 -0.093847 13.2046 2.72806L18.7782 4.94944ZM20.1491 3.22656C20.1707 3.22656 20.3061 3.22431 20.5621 3.44686C20.8374 3.6863 21.2036 4.15547 21.52 4.9493L27.0936 2.72797C25.9691 -0.0936843 23.6141 -2.77344 20.1491 -2.77344V3.22656ZM26.1463 6.20851C27.6588 5.03453 28.3558 5.02042 28.3972 5.02088C28.411 5.02103 28.3544 5.01968 28.2673 4.97644C28.1925 4.93929 28.1321 4.88979 28.0827 4.83714L32.4594 0.732863C31.754 -0.0193332 30.4372 -0.957168 28.4628 -0.978766C26.5758 -0.999407 24.5839 -0.1741 22.4673 1.46875L26.1463 6.20851ZM28.083 4.83741C27.864 4.604 28.2372 4.72841 27.8983 5.95158C27.5921 7.05684 26.8101 8.51731 25.4865 9.99192L29.9516 13.9997C31.7479 11.9984 33.0744 9.74101 33.6805 7.5536C34.2539 5.48409 34.3431 2.74104 32.4591 0.732586L28.083 4.83741ZM25.4862 9.99223C25.4231 10.0625 25.3666 10.1242 25.2867 10.2123L29.7293 14.245C29.79 14.1782 29.8737 14.0866 29.9519 13.9994L25.4862 9.99223ZM26.4618 15.0403C26.4464 15.0346 26.4401 15.0277 26.4365 15.0226C26.4337 15.0187 26.4301 15.0123 26.4271 15.0032C26.4239 14.9931 26.4231 14.9848 26.4231 14.9814H32.4231C32.4231 12.424 30.8041 10.2542 28.5543 9.41703L26.4618 15.0403ZM26.4231 14.9814C26.4231 14.979 26.4235 14.9729 26.4256 14.9648C26.4275 14.957 26.4302 14.9505 26.4329 14.9455C26.4374 14.937 26.4418 14.933 26.446 14.93L29.879 19.8508C31.406 18.7855 32.4231 17.0045 32.4231 14.9814H26.4231ZM26.5393 19.9134C28.458 21.1478 30.2301 22.6527 31.7446 24.3394L36.2091 20.3309C34.3317 18.24 32.1486 16.3877 29.7857 14.8675L26.5393 19.9134ZM35.052 25.1359C36.1661 24.7082 37.3755 24.4724 38.644 24.4724V18.4724C36.6251 18.4724 34.6878 18.8488 32.9018 19.5344L35.052 25.1359ZM38.644 24.4724C44.1892 24.4724 48.7055 28.9887 48.7055 34.5339H54.7055C54.7055 25.6749 47.5029 18.4724 38.644 18.4724V24.4724ZM48.7055 34.5339C48.7055 36.4584 48.1639 38.2522 47.2248 39.7807L52.337 42.9216C53.8379 40.4787 54.7055 37.6025 54.7055 34.5339H48.7055ZM47.6596 43.4725L56.8695 52.6824L61.1121 48.4397L51.9022 39.2299L47.6596 43.4725ZM56.8697 52.6826C56.8748 52.6877 56.8773 52.6911 56.8782 52.6925C56.8791 52.6939 56.8795 52.6947 56.8797 52.6952C56.8799 52.6957 56.8805 52.6973 56.8812 52.7006C56.8818 52.7039 56.8828 52.7104 56.8828 52.7208H62.8828C62.8828 51.1123 62.2532 49.5806 61.1119 48.4395L56.8697 52.6826ZM11.6546 12.8255C12.0447 13.2601 12.4234 13.6749 12.8043 14.0855L17.203 10.0048C16.8442 9.61811 16.4877 9.22758 16.1197 8.81769L11.6546 12.8255ZM15.0036 15.0452H25.2768V9.04516H15.0036V15.0452ZM27.4422 14.1214C27.8339 13.7129 28.2362 13.2793 28.6435 12.8255L24.1783 8.8177C23.8134 9.22431 23.4558 9.60961 23.1113 9.96892L27.4422 14.1214ZM28.6434 12.8255C30.3564 10.9172 31.4125 8.99983 31.918 7.29601C32.1684 6.45224 32.3047 5.58874 32.2702 4.76481C32.2404 4.05023 32.0598 2.8761 31.1769 1.93502L26.8011 6.04014C26.4979 5.71692 26.3746 5.40656 26.3276 5.25932C26.3014 5.17727 26.2888 5.11457 26.2827 5.07693C26.2765 5.03873 26.2756 5.01746 26.2755 5.01553C26.2754 5.01402 26.2772 5.06368 26.2621 5.16847C26.2473 5.27114 26.2185 5.41201 26.1659 5.58925C25.951 6.31355 25.3919 7.46563 24.1784 8.81767L28.6434 12.8255ZM31.1775 1.93562C29.7081 0.36847 27.6872 0.762581 26.8358 1.02361C25.73 1.36266 24.5842 2.03793 23.4429 2.93762L27.1573 7.64965C27.9676 7.0109 28.4514 6.80398 28.5947 6.76003C28.6661 6.73814 28.5262 6.79594 28.2367 6.76986C27.9337 6.74257 27.3275 6.6016 26.8005 6.03953L31.1775 1.93562ZM23.4427 2.93775C23.7903 2.66373 24.2212 2.59191 24.6034 2.69824L22.9953 8.47871C24.4205 8.8752 25.9736 8.58283 27.1574 7.64951L23.4427 2.93775ZM24.6033 2.69819C24.9786 2.80259 25.3595 3.10404 25.5348 3.56952L19.9199 5.68438C20.4498 7.09135 21.6123 8.09405 22.9955 8.47876L24.6033 2.69819ZM25.5344 3.56843C25.1222 2.4754 24.5275 1.42611 23.7209 0.59943C22.9299 -0.211327 21.7132 -1.01562 20.1491 -1.01562V4.98438C19.5607 4.98438 19.3258 4.68639 19.4263 4.78943C19.4617 4.82567 19.5354 4.91216 19.6292 5.06877C19.7219 5.22334 19.8232 5.42799 19.9203 5.68547L25.5344 3.56843ZM20.1491 -1.01562C18.5849 -1.01562 17.3681 -0.211179 16.5772 0.599607C15.7707 1.42633 15.1759 2.47567 14.7638 3.56873L20.3779 5.68564C20.475 5.42812 20.5764 5.22343 20.669 5.06883C20.7629 4.91218 20.8366 4.82566 20.872 4.7894C20.9726 4.6863 20.7376 4.98438 20.1491 4.98438V-1.01562ZM14.7633 3.56991C14.939 3.10344 15.3204 2.80228 15.695 2.69808L17.3028 8.47864C18.6853 8.09412 19.8483 7.09195 20.3784 5.68446L14.7633 3.56991ZM15.6935 2.6985C16.0771 2.5916 16.5089 2.66401 16.8564 2.93818L13.1397 7.64839C14.3238 8.58279 15.8781 8.87575 17.3044 8.47821L15.6935 2.6985ZM16.855 2.9371C15.714 2.03783 14.5683 1.36259 13.4627 1.02349C12.6113 0.762374 10.59 0.368045 9.12046 1.93575L13.4979 6.03917C12.9711 6.60116 12.365 6.7423 12.0617 6.76962C11.7719 6.79572 11.632 6.73786 11.7034 6.75977C11.8468 6.80376 12.3306 7.01077 13.141 7.64946L16.855 2.9371ZM9.12109 1.93509C8.23842 2.87612 8.05785 4.0501 8.02796 4.76474C7.9935 5.58866 8.1298 6.45215 8.38015 7.29592C8.88568 8.99973 9.94173 10.9171 11.6546 12.8254L16.1198 8.81775C14.9062 7.46564 14.3472 6.31354 14.1323 5.58922C14.0797 5.41198 14.0509 5.27111 14.0361 5.16844C14.021 5.06364 14.0228 5.01398 14.0227 5.01547C14.0226 5.0174 14.0217 5.03866 14.0155 5.07685C14.0094 5.11448 13.9968 5.17716 13.9706 5.25919C13.9237 5.4064 13.8004 5.71668 13.4973 6.03984L9.12109 1.93509ZM9.63293 14.9813C9.63293 17.2878 11.5047 19.1596 13.8112 19.1596V13.1596C14.8184 13.1596 15.6329 13.9741 15.6329 14.9813H9.63293ZM13.8112 19.1596H26.4871V13.1596H13.8112V19.1596ZM26.4871 19.1596C28.7936 19.1596 30.6654 17.2878 30.6654 14.9813H24.6654C24.6654 13.9741 25.4799 13.1596 26.4871 13.1596V19.1596ZM30.6654 14.9813C30.6654 12.6747 28.7936 10.803 26.4871 10.803V16.803C25.4799 16.803 24.6654 15.9885 24.6654 14.9813H30.6654ZM26.4871 10.803H13.8112V16.803H26.4871V10.803ZM13.8112 10.803C11.5047 10.803 9.63293 12.6747 9.63293 14.9813H15.6329C15.6329 15.9885 14.8184 16.803 13.8112 16.803V10.803ZM36.2586 44.3089C34.8917 43.9753 33.6307 43.3602 32.5405 42.5249L28.8916 47.2879C30.626 48.6166 32.6418 49.6023 34.836 50.1378L36.2586 44.3089ZM28.3617 43.047C26.3815 45.5542 23.3646 47.0288 20.1492 47.0288V53.0288C25.2108 53.0288 29.9587 50.7055 33.0703 46.7658L28.3617 43.047ZM20.1492 47.0288C14.3832 47.0288 9.6873 42.3329 9.6873 36.5669H3.6873C3.6873 45.6466 11.0695 53.0288 20.1492 53.0288V47.0288ZM9.6873 36.5669C9.6873 30.8008 14.3832 26.105 20.1492 26.105V20.105C11.0695 20.105 3.6873 27.4871 3.6873 36.5669H9.6873ZM20.1492 26.105C22.5796 26.105 24.8941 26.9343 26.7559 28.4544L30.5506 23.8068C27.6172 21.4117 23.9621 20.105 20.1492 20.105V26.105ZM30.9477 28.0634C31.7371 27.1263 32.6931 26.3354 33.7676 25.7366L30.8472 20.4953C29.1329 21.4505 27.613 22.7092 26.3589 24.1978L30.9477 28.0634ZM34.4983 21.0666C32.3483 18.7681 29.8019 16.7891 27.0499 15.285L24.1723 20.5499C26.3588 21.745 28.3986 23.3288 30.1165 25.1653L34.4983 21.0666ZM25.6111 14.9174H14.6848V20.9174H25.6111V14.9174ZM13.244 15.2861C6.76797 18.832 -1.125 26.7121 -1.125 37.5824H4.875C4.875 29.751 10.6934 23.5232 16.1256 20.5488L13.244 15.2861ZM-1.125 37.5824C-1.125 45.4308 2.26727 50.3454 6.9166 53.1171C11.3208 55.7426 16.5362 56.2645 20.1491 56.2645V50.2645C16.9372 50.2645 13.0155 49.7676 9.98893 47.9634C7.2074 46.3052 4.875 43.3787 4.875 37.5824H-1.125ZM20.1491 56.2645C27.6688 56.2645 34.147 53.9652 37.9254 49.0522L33.1692 45.3945C30.9398 48.2934 26.6087 50.2645 20.1491 50.2645V56.2645ZM28.5826 34.5338C28.5826 34.2668 28.683 33.4582 28.8776 32.3701C29.059 31.3559 29.266 30.4006 29.3771 29.9788L23.5748 28.4513C23.4063 29.0912 23.1667 30.2211 22.9713 31.3139C22.7891 32.3327 22.5826 33.6526 22.5826 34.5338H28.5826ZM28.6912 27.1921C26.3903 24.6724 22.8272 23.8679 20.1492 23.8679V29.8679C21.9623 29.8679 23.5519 30.462 24.2606 31.238L28.6912 27.1921ZM19.7233 23.8982C16.5963 24.3468 13.609 26.0356 11.4114 28.1891C9.24364 30.3134 7.45031 33.2913 7.45031 36.5668H13.4503C13.4503 35.4634 14.1216 33.9339 15.6109 32.4745C17.0704 31.0443 18.9325 30.0731 20.5752 29.8375L19.7233 23.8982ZM7.45031 36.5668C7.45031 40.0048 9.63675 42.9836 11.8068 44.9793C14.0348 47.0283 16.942 48.6932 19.5712 49.2094L20.7273 43.3219C19.4572 43.0725 17.515 42.0774 15.8683 40.563C14.1637 38.9953 13.4503 37.5076 13.4503 36.5668H7.45031ZM20.1492 49.2657C22.1011 49.2657 24.1772 48.7298 25.9803 47.8386C27.7643 46.9569 29.5684 45.5826 30.6639 43.6718L25.4586 40.6876C25.1376 41.2475 24.4217 41.9161 23.3219 42.4597C22.2411 42.9939 21.0693 43.2657 20.1492 43.2657V49.2657ZM30.7254 40.8005C30.3202 40.0177 29.7559 38.7704 29.3005 37.4883C28.8142 36.119 28.5826 35.0663 28.5826 34.5338H22.5826C22.5826 36.1574 23.1259 38.0305 23.6466 39.4965C24.1983 41.0497 24.8734 42.5473 25.3971 43.5589L30.7254 40.8005ZM29.5248 25.2425C26.892 23.0596 23.5943 21.8628 20.1492 21.8628V27.8628C22.1922 27.8628 24.1362 28.5688 25.6953 29.8615L29.5248 25.2425ZM20.1492 21.8628C12.0386 21.8628 5.44512 28.4564 5.44512 36.5669H11.4451C11.4451 31.7701 15.3523 27.8628 20.1492 27.8628V21.8628ZM5.44512 36.5669C5.44512 44.6774 12.0387 51.271 20.1492 51.271V45.271C15.3524 45.271 11.4451 41.3637 11.4451 36.5669H5.44512ZM20.1492 51.271C24.7084 51.271 28.9839 49.161 31.7622 45.5871L27.0252 41.9046C25.378 44.0235 22.8472 45.271 20.1492 45.271V51.271ZM31.5193 41.6289C31.1467 41.2547 30.8027 40.8504 30.4908 40.4198L25.6317 43.9396C26.126 44.622 26.673 45.2654 27.268 45.8629L31.5193 41.6289ZM25.6112 40.4484C24.3684 42.2071 22.3633 43.2657 20.1492 43.2657V49.2657C24.3207 49.2657 28.1492 47.2536 30.5113 43.911L25.6112 40.4484ZM21.2092 43.4592C17.9215 42.2174 16.2112 41.2662 15.1983 40.273C14.3219 39.4137 13.7546 38.3092 13.4152 36.1093L7.48539 37.0242C7.94567 40.0075 8.89218 42.4927 10.9975 44.5571C12.9663 46.4875 15.7057 47.7942 19.0892 49.0722L21.2092 43.4592ZM13.4503 36.5668C13.4503 35.1114 14.3738 33.4418 16.0608 31.9771C16.8652 31.2787 17.7408 30.7231 18.5391 30.3529C19.3821 29.9621 19.9424 29.8679 20.1492 29.8679V23.8679C18.7483 23.8679 17.2924 24.3175 16.0153 24.9096C14.6937 25.5223 13.3455 26.3887 12.1271 27.4465C9.76852 29.4943 7.45031 32.6741 7.45031 36.5668H13.4503ZM20.1492 29.8679C21.7967 29.8679 23.4193 30.4914 24.6358 31.5921L28.6616 27.1432C26.3364 25.0392 23.2771 23.8679 20.1492 23.8679V29.8679ZM29.4022 30.5585C29.6128 30.0716 29.8607 29.6042 30.1428 29.16L25.0774 25.944C24.6275 26.6527 24.2316 27.3989 23.8951 28.1769L29.4022 30.5585ZM38.6441 48.8373C46.5338 48.8373 52.9478 42.4234 52.9478 34.5338H46.9478C46.9478 39.1096 43.2201 42.8373 38.6441 42.8373V48.8373ZM52.9478 34.5338C52.9478 26.6439 46.5338 20.2301 38.6441 20.2301V26.2301C43.2201 26.2301 46.9478 29.9577 46.9478 34.5338H52.9478ZM38.6441 20.2301C30.7544 20.2301 24.3404 26.6441 24.3404 34.5338H30.3404C30.3404 29.9578 34.0681 26.2301 38.6441 26.2301V20.2301ZM24.3404 34.5338C24.3404 42.4235 30.7544 48.8373 38.6441 48.8373V42.8373C34.0681 42.8373 30.3404 39.1097 30.3404 34.5338H24.3404ZM44.7921 46.7577L51.5682 53.5339L55.8109 49.2912L49.0348 42.5151L44.7921 46.7577ZM55.8109 53.5339L57.6444 51.7003L53.4018 47.4577L51.5682 49.2912L55.8109 53.5339ZM57.6444 47.4577L50.8681 40.6815L46.6255 44.9242L53.4018 51.7004L57.6444 47.4577ZM46.4268 40.9009C46.0029 41.418 45.5284 41.8924 45.011 42.3167L48.8158 46.9561C49.6379 46.2819 50.3922 45.5277 51.0668 44.7049L46.4268 40.9009ZM61.125 52.7208C61.125 51.5875 60.6823 50.4961 59.8697 49.6831L55.6261 53.9248C55.2998 53.5983 55.125 53.158 55.125 52.7208H61.125ZM59.8692 49.6826L58.8873 48.7007L54.6446 52.9433L55.6266 53.9253L59.8692 49.6826ZM54.6447 48.7007L52.8111 50.5342L57.0538 54.7769L58.8873 52.9433L54.6447 48.7007ZM52.8111 54.7769L53.793 55.7588L58.0357 51.5161L57.0538 50.5342L52.8111 54.7769ZM53.7933 55.759C55.4702 57.4356 58.1921 57.4359 59.8692 55.7588L55.6266 51.5161C56.2929 50.8499 57.3696 50.8502 58.0354 51.5159L53.7933 55.759ZM59.8687 55.7593C60.6826 54.9458 61.125 53.8536 61.125 52.7208H55.125C55.125 52.2839 55.2995 51.843 55.6271 51.5156L59.8687 55.7593ZM45.5858 28.2928C43.9601 26.9001 41.512 27.0868 40.1171 28.7139L44.6725 32.6189C43.9095 33.5089 42.5707 33.6104 41.6823 32.8494L45.5858 28.2928ZM40.117 28.714L35.1198 34.5441L39.6753 38.4488L44.6726 32.6187L40.117 28.714ZM39.6297 34.4921L37.1123 31.6886L32.648 35.6974L35.1654 38.5008L39.6297 34.4921ZM37.1122 31.6884C35.6808 30.0947 33.2286 29.9631 31.6349 31.394L35.6432 35.8586C34.7718 36.641 33.431 36.5691 32.6482 35.6975L37.1122 31.6884ZM31.6345 31.3943C30.0409 32.8255 29.9086 35.2778 31.3404 36.872L35.8043 32.8628C36.5873 33.7347 36.5148 35.0758 35.6436 35.8583L31.6345 31.3943ZM31.3402 36.8718L34.5269 40.4206L38.9912 36.4118L35.8045 32.863L31.3402 36.8718ZM34.5267 40.4204C35.2629 41.2404 36.3125 41.7079 37.4129 41.7079V35.7079C38.0146 35.7079 38.5887 35.9635 38.9914 36.412L34.5267 40.4204ZM37.4477 41.7077L37.4578 41.7076L37.3882 35.708L37.3781 35.7081L37.4477 41.7077ZM37.4564 41.7076C38.5744 41.6952 39.6315 41.2008 40.3579 40.3535L35.8025 36.4485C36.1996 35.9853 36.7776 35.7148 37.3897 35.708L37.4564 41.7076ZM40.3579 40.3534L46.0072 33.7628L41.4517 29.8579L35.8025 36.4486L40.3579 40.3534ZM46.0068 33.7632C47.402 32.1362 47.2126 29.6868 45.5861 28.2931L41.682 32.8491C40.7926 32.087 40.6888 30.7476 41.4521 29.8575L46.0068 33.7632Z" fill="#274680" mask="url(#path-1-inside-1_33158_191)"/>
</svg>
