<?xml version="1.0" encoding="utf-8"?>
<!-- Generator: Adobe Illustrator 24.3.0, SVG Export Plug-In . SVG Version: 6.00 Build 0)  -->
<svg version="1.0" id="Layer_1" xmlns="http://www.w3.org/2000/svg" xmlns:xlink="http://www.w3.org/1999/xlink" x="0px" y="0px"
	 viewBox="0 0 2000 609.24" style="enable-background:new 0 0 2000 609.24;" xml:space="preserve">
<style type="text/css">
	.st0{fill:#005AAB;}
	.st1{fill:#2F82C9;}
	.st2{fill:#333333;}
</style>
<g>
	<g>
		<g>
			<g>
				<path class="st0" d="M279.79,454.35c-4.21,4.21-11.04,4.21-15.25,0L122.43,312.24c-2.04-2.04-3.17-4.75-3.17-7.62
					c0-2.87,1.13-5.59,3.17-7.62l142.11-142.11c2.1-2.1,4.86-3.15,7.62-3.15c2.76,0,5.52,1.04,7.62,3.15l7.42,7.42l0,0l12.81,12.81
					l0,0l7.17,7.17l29.62,29.62l0,0l85.09,85.09c2.1,2.1,3.17,4.86,3.17,7.62c0,2.76-1.06,5.52-3.17,7.62l-85.09,85.09l24.01,24.01
					l85.09-85.09c17.42-17.44,17.42-45.82,0-63.26l-85.09-85.09l-12.78-12.78l-24.01-24.01l-12.81-12.81l-7.42-7.42
					c-17.44-17.42-45.82-17.42-63.26,0L98.43,272.98c-8.44,8.46-13.1,19.68-13.1,31.63c0,11.95,4.66,23.19,13.1,31.63l142.11,142.11
					c8.71,8.71,20.18,13.08,31.63,13.08s22.9-4.37,31.63-13.08l7.42-7.42l-24.01-24.01L279.79,454.35z"/>
				<path class="st1" d="M549.6,272.98L407.49,130.87c-17.42-17.42-45.82-17.42-63.24,0l-7.44,7.44l24.01,23.98l7.42-7.42
					c2.1-2.1,4.86-3.15,7.62-3.15c2.78,0,5.54,1.04,7.65,3.15l142.11,142.11c4.19,4.21,4.19,11.04-0.02,15.25h0.02L383.5,454.35
					c-4.21,4.21-11.06,4.21-15.27,0l-7.42-7.42l-12.78-12.81l-24.01-24.01l-12.81-12.78l-85.07-85.09
					c-2.06-2.04-3.17-4.75-3.17-7.62c0-2.87,1.11-5.59,3.14-7.62l85.09-85.09l-23.98-23.98l-85.09,85.07
					c-8.46,8.46-13.1,19.68-13.1,31.63c0,11.95,4.64,23.19,13.1,31.63l85.09,85.09l12.78,12.78l24.01,24.01l12.81,12.81l7.42,7.42
					c8.71,8.71,20.16,13.08,31.61,13.08c11.47,0,22.92-4.37,31.63-13.08L549.6,336.24C567.04,318.8,567.04,290.43,549.6,272.98z"/>
			</g>
		</g>
	</g>
	<g>
		<g>
			<g>
				<g>
					<g>
						<path class="st0" d="M753.49,224.83c-3.07,6.26-7.25,11.47-12.54,15.64c-5.29,4.17-11.49,7.33-18.6,9.49
							c-7.11,2.16-14.7,3.23-22.78,3.23h-29.05v46.92h-25.44V154.14h57.55c8.48,0,16.16,1.15,23.04,3.44
							c6.88,2.29,12.72,5.6,17.52,9.9c4.8,4.31,8.48,9.45,11.05,15.43c2.57,5.98,3.86,12.72,3.86,20.23
							C758.09,211.35,756.55,218.57,753.49,224.83z M723.44,183.88c-5.72-4.4-13.39-6.59-23.02-6.59h-29.92v52.76h29.92
							c9.76,0,17.47-2.41,23.12-7.22c5.65-4.82,8.47-11.2,8.47-19.15C732.02,194.87,729.16,188.28,723.44,183.88z"/>
						<path class="st0" d="M877.98,300.1l-35.98-50.88H809.8v50.88h-25.44V154.14h65.06c8.34,0,15.88,1.08,22.62,3.23
							c6.74,2.16,12.44,5.21,17.1,9.17c4.66,3.96,8.24,8.83,10.74,14.6c2.5,5.77,3.75,12.2,3.75,19.29c0,6.12-0.87,11.57-2.61,16.37
							c-1.74,4.8-4.14,9.04-7.19,12.72c-3.06,3.68-6.71,6.81-10.95,9.38c-4.24,2.57-8.93,4.56-14.08,5.94l39.41,55.26H877.98z
							 M869.62,183.46c-5.3-4.12-12.76-6.18-22.38-6.18H809.8v49.21h37.65c9.2,0,16.52-2.23,21.96-6.7
							c5.44-4.47,8.16-10.47,8.16-18.01C877.57,193.69,874.92,187.58,869.62,183.46z"/>
						<path class="st0" d="M1043.13,177.29h-82.57v37.53h73.19v23.15h-73.19v38.99h83.62v23.15H935.12V154.14h108.01V177.29z"/>
						<path class="st0" d="M1214.53,300.1h-27.11l-14.8-35.24h-69.02l-15.01,35.24h-26.27l64.22-147.01h23.77L1214.53,300.1z
							 M1138.01,183.75l-25.02,58.39h50.25L1138.01,183.75z"/>
						<path class="st0" d="M1345.8,287.49c-4.1,3.13-8.52,5.84-13.24,8.13c-4.73,2.29-9.9,4.03-15.53,5.21s-11.85,1.77-18.66,1.77
							c-10.71,0-20.57-1.95-29.61-5.84c-9.04-3.89-16.86-9.21-23.46-15.95c-6.6-6.74-11.78-14.7-15.53-23.88
							c-3.75-9.17-5.63-19.04-5.63-29.61c0-10.43,1.84-20.23,5.53-29.4c3.68-9.17,8.86-17.2,15.53-24.08
							c6.67-6.88,14.6-12.3,23.77-16.26c9.17-3.96,19.32-5.94,30.44-5.94c6.67,0,12.75,0.56,18.25,1.67
							c5.49,1.11,10.53,2.68,15.12,4.69c4.59,2.02,8.83,4.41,12.72,7.19c3.89,2.78,7.58,5.84,11.05,9.18l-16.47,18.98
							c-5.84-5.42-12.03-9.8-18.56-13.14c-6.54-3.34-13.97-5-22.31-5c-6.95,0-13.38,1.36-19.29,4.07
							c-5.91,2.71-11.02,6.4-15.33,11.05c-4.31,4.66-7.65,10.11-10.01,16.37c-2.37,6.26-3.54,13-3.54,20.23
							c0,7.23,1.18,14.01,3.54,20.33c2.36,6.33,5.7,11.85,10.01,16.58c4.31,4.73,9.42,8.44,15.33,11.16
							c5.91,2.71,12.34,4.07,19.29,4.07c8.9,0,16.54-1.7,22.94-5.11c6.39-3.4,12.72-8.03,18.98-13.87l16.47,16.68
							C1353.82,280.78,1349.89,284.36,1345.8,287.49z"/>
						<path class="st0" d="M1409.91,238.59v61.51h-25.44V154.14h25.44v60.68h70.06v-60.68h25.44V300.1h-25.44v-61.51H1409.91z"/>
					</g>
				</g>
				<g>
					<path class="st2" d="M691.28,353.78v101.95h-8.12V353.78h-38.09v-7.34h84.31v7.34H691.28z"/>
					<path class="st2" d="M754.04,455.73V346.44h77.75v7.34h-69.63v43.25h62.61v7.34h-62.61v44.03h70.41v7.34H754.04z"/>
					<path class="st2" d="M942.57,446.28c-3.07,2.34-6.35,4.35-9.84,6.01c-3.49,1.67-7.26,2.97-11.32,3.9
						c-4.06,0.94-8.48,1.41-13.27,1.41c-7.81,0-15.04-1.46-21.7-4.37c-6.66-2.91-12.41-6.89-17.25-11.94
						c-4.84-5.05-8.61-11.01-11.32-17.88c-2.71-6.87-4.06-14.21-4.06-22.01v-0.31c0-7.7,1.38-14.99,4.14-21.86
						c2.76-6.87,6.56-12.88,11.4-18.03c4.84-5.15,10.59-9.21,17.25-12.18c6.66-2.97,13.95-4.45,21.86-4.45
						c4.89,0,9.31,0.42,13.27,1.25c3.95,0.83,7.62,2.03,11.01,3.59c3.38,1.56,6.56,3.41,9.52,5.54c2.97,2.13,5.85,4.5,8.67,7.1
						l-5.78,5.93c-2.4-2.29-4.89-4.42-7.49-6.4c-2.6-1.98-5.39-3.67-8.35-5.07c-2.97-1.41-6.19-2.52-9.68-3.36
						c-3.49-0.83-7.26-1.25-11.32-1.25c-6.56,0-12.65,1.25-18.27,3.75c-5.62,2.5-10.49,5.96-14.6,10.38
						c-4.11,4.43-7.34,9.6-9.68,15.53c-2.34,5.93-3.51,12.33-3.51,19.2v0.31c0,6.87,1.2,13.3,3.59,19.28
						c2.39,5.99,5.65,11.19,9.76,15.61c4.11,4.43,8.98,7.91,14.6,10.46c5.62,2.55,11.71,3.83,18.27,3.83
						c7.91,0,14.78-1.46,20.61-4.37c5.83-2.91,11.5-7.13,17.02-12.65l5.46,5.31C948.63,441.36,945.63,443.94,942.57,446.28z"/>
					<path class="st2" d="M1051.93,455.73v-51.21h-69.94v51.21h-8.12V346.44h8.12v50.74h69.94v-50.74h8.12v109.29H1051.93z"/>
					<path class="st2" d="M1177.3,455.73l-76.97-97.11v97.11h-7.81V346.44h7.65l75.41,95.08v-95.08h7.81v109.29H1177.3z"/>
					<path class="st2" d="M1316.95,422.55c-2.65,6.82-6.38,12.83-11.16,18.03c-4.79,5.21-10.59,9.34-17.41,12.41
						c-6.82,3.07-14.34,4.61-22.56,4.61c-8.33,0-15.85-1.54-22.56-4.61s-12.47-7.18-17.25-12.33c-4.79-5.15-8.48-11.11-11.08-17.88
						c-2.6-6.77-3.9-13.9-3.9-21.39v-0.31c0-7.49,1.33-14.65,3.98-21.47c2.65-6.82,6.37-12.83,11.16-18.03
						c4.79-5.2,10.56-9.34,17.33-12.41c6.77-3.07,14.31-4.61,22.64-4.61c8.22,0,15.72,1.54,22.48,4.61
						c6.76,3.07,12.54,7.18,17.33,12.33c4.79,5.15,8.48,11.11,11.08,17.88c2.6,6.77,3.9,13.89,3.9,21.39c0.1,0.11,0.1,0.21,0,0.31
						C1320.93,408.58,1319.61,415.73,1316.95,422.55z M1312.5,401.08c0-6.76-1.17-13.14-3.51-19.13
						c-2.34-5.98-5.57-11.19-9.68-15.61c-4.11-4.42-9.03-7.94-14.75-10.54c-5.73-2.6-11.97-3.9-18.73-3.9
						c-6.77,0-12.99,1.28-18.66,3.82c-5.67,2.55-10.57,6.04-14.68,10.46c-4.11,4.42-7.31,9.6-9.6,15.53
						c-2.29,5.93-3.43,12.28-3.43,19.05v0.31c0,6.77,1.17,13.14,3.51,19.13c2.34,5.99,5.57,11.19,9.68,15.61
						c4.11,4.43,9.03,7.94,14.75,10.54c5.72,2.6,11.97,3.9,18.73,3.9c6.77,0,12.98-1.27,18.66-3.83
						c5.67-2.55,10.56-6.03,14.68-10.46c4.11-4.42,7.31-9.6,9.6-15.54c2.29-5.93,3.43-12.28,3.43-19.05V401.08z"/>
					<path class="st2" d="M1348.57,455.73V346.44h8.12v101.95h64.17v7.34H1348.57z"/>
					<path class="st2" d="M1540.05,422.55c-2.65,6.82-6.38,12.83-11.16,18.03c-4.79,5.21-10.59,9.34-17.41,12.41
						c-6.82,3.07-14.34,4.61-22.56,4.61c-8.33,0-15.85-1.54-22.56-4.61s-12.47-7.18-17.25-12.33c-4.79-5.15-8.48-11.11-11.08-17.88
						c-2.6-6.77-3.9-13.9-3.9-21.39v-0.31c0-7.49,1.33-14.65,3.98-21.47c2.65-6.82,6.37-12.83,11.16-18.03
						c4.79-5.2,10.56-9.34,17.33-12.41c6.77-3.07,14.31-4.61,22.64-4.61c8.22,0,15.72,1.54,22.48,4.61
						c6.76,3.07,12.54,7.18,17.33,12.33c4.79,5.15,8.48,11.11,11.08,17.88c2.6,6.77,3.9,13.89,3.9,21.39c0.1,0.11,0.1,0.21,0,0.31
						C1544.04,408.58,1542.71,415.73,1540.05,422.55z M1535.6,401.08c0-6.76-1.17-13.14-3.51-19.13
						c-2.34-5.98-5.57-11.19-9.68-15.61c-4.11-4.42-9.03-7.94-14.75-10.54c-5.73-2.6-11.97-3.9-18.73-3.9
						c-6.77,0-12.99,1.28-18.66,3.82c-5.67,2.55-10.57,6.04-14.68,10.46c-4.11,4.42-7.31,9.6-9.6,15.53
						c-2.29,5.93-3.43,12.28-3.43,19.05v0.31c0,6.77,1.17,13.14,3.51,19.13c2.34,5.99,5.57,11.19,9.68,15.61
						c4.11,4.43,9.03,7.94,14.75,10.54c5.72,2.6,11.97,3.9,18.73,3.9c6.77,0,12.98-1.27,18.66-3.83
						c5.67-2.55,10.56-6.03,14.68-10.46c4.11-4.42,7.31-9.6,9.6-15.54c2.29-5.93,3.43-12.28,3.43-19.05V401.08z"/>
					<path class="st2" d="M1646.22,452.7c-7.34,3.27-15.48,4.9-24.43,4.9c-8.64,0-16.37-1.48-23.19-4.45
						c-6.82-2.97-12.57-7-17.25-12.1c-4.68-5.1-8.27-11.06-10.77-17.88c-2.5-6.82-3.75-14.08-3.75-21.78v-0.31
						c0-7.39,1.27-14.49,3.82-21.31c2.55-6.82,6.19-12.83,10.93-18.03c4.74-5.2,10.43-9.37,17.1-12.49
						c6.66-3.12,14.05-4.68,22.17-4.68c4.47,0,8.56,0.31,12.26,0.94c3.69,0.62,7.13,1.56,10.3,2.81c3.17,1.25,6.19,2.76,9.06,4.53
						c2.86,1.77,5.65,3.8,8.35,6.09l-5.31,6.09c-4.27-3.75-9.13-6.87-14.6-9.37c-5.46-2.5-12.31-3.75-20.53-3.75
						c-6.66,0-12.75,1.3-18.27,3.9c-5.52,2.6-10.28,6.13-14.29,10.6c-4.01,4.47-7.1,9.67-9.29,15.59
						c-2.19,5.92-3.28,12.16-3.28,18.7V401c0,7.07,1.07,13.61,3.2,19.64c2.13,6.03,5.23,11.22,9.29,15.59
						c4.06,4.37,8.98,7.8,14.75,10.29s12.31,3.74,19.59,3.74c3.43,0,6.82-0.34,10.15-1.01c3.33-0.67,6.48-1.58,9.45-2.72
						c2.97-1.14,5.75-2.46,8.35-3.97c2.6-1.5,4.89-3.09,6.87-4.75v-31.27h-36.53v-7.34h44.34v42.04
						C1659.72,445.61,1653.56,449.43,1646.22,452.7z"/>
					<path class="st2" d="M1695.16,455.73V346.44h8.12v109.29H1695.16z"/>
					<path class="st2" d="M1736.85,455.73V346.44h77.75v7.34h-69.63v43.25h62.61v7.34h-62.61v44.03h70.41v7.34H1736.85z"/>
					<path class="st2" d="M1911.94,439.57c-1.82,3.7-4.32,6.84-7.49,9.45c-3.18,2.6-6.97,4.63-11.4,6.09
						c-4.43,1.46-9.29,2.19-14.6,2.19c-8.74,0-16.63-1.46-23.65-4.37c-7.03-2.91-13.82-7.29-20.37-13.11l5.31-6.09
						c3.02,2.81,6.01,5.23,8.98,7.26c2.97,2.03,6.01,3.7,9.13,5c3.12,1.3,6.4,2.29,9.84,2.97c3.43,0.68,7.18,1.02,11.24,1.02
						c4.06,0,7.81-0.55,11.24-1.64c3.43-1.09,6.35-2.6,8.74-4.53c2.39-1.92,4.27-4.22,5.62-6.87c1.35-2.65,2.03-5.54,2.03-8.67
						v-0.31c0-2.91-0.44-5.52-1.33-7.81c-0.89-2.29-2.5-4.37-4.84-6.25c-2.34-1.87-5.49-3.56-9.45-5.07
						c-3.96-1.51-9.06-2.89-15.3-4.14c-6.56-1.35-12.18-2.94-16.86-4.76c-4.68-1.82-8.51-3.95-11.47-6.4
						c-2.97-2.44-5.13-5.28-6.48-8.51c-1.35-3.22-2.03-6.92-2.03-11.08v-0.31c0-4.06,0.88-7.83,2.65-11.32
						c1.77-3.49,4.22-6.53,7.34-9.13c3.12-2.6,6.82-4.63,11.08-6.09c4.27-1.46,8.95-2.19,14.05-2.19c7.91,0,14.75,1.09,20.53,3.28
						c5.78,2.19,11.42,5.52,16.94,9.99l-5.15,6.4c-5.21-4.47-10.44-7.65-15.69-9.52c-5.26-1.87-10.9-2.81-16.94-2.81
						c-4.06,0-7.73,0.55-11.01,1.64c-3.28,1.09-6.09,2.58-8.43,4.45c-2.34,1.87-4.14,4.06-5.39,6.56c-1.25,2.5-1.87,5.15-1.87,7.96
						v0.31c0,2.91,0.44,5.54,1.33,7.88c0.88,2.34,2.5,4.48,4.84,6.4c2.34,1.93,5.59,3.67,9.76,5.23c4.16,1.56,9.47,3.02,15.92,4.37
						c12.7,2.6,21.86,6.27,27.48,11.01c5.62,4.74,8.43,11.11,8.43,19.12v0.31C1914.67,431.84,1913.76,435.87,1911.94,439.57z"/>
				</g>
			</g>
		</g>
	</g>
</g>
</svg>
