<?xml version="1.0" encoding="UTF-8"?>
<svg xmlns="http://www.w3.org/2000/svg" xmlns:xlink="http://www.w3.org/1999/xlink" width="60px" height="60px" viewBox="0 0 60 60" version="1.1">
<defs>
<clipPath id="clip1">
  <path d="M 13 2 L 47 2 L 47 58 L 13 58 Z M 13 2 "/>
</clipPath>
<clipPath id="clip2">
  <path d="M 26.113281 34.542969 L 31.191406 24.511719 C 31.558594 23.792969 32.441406 23.503906 33.160156 23.867188 C 33.882812 24.234375 34.171875 25.117188 33.804688 25.835938 L 28.726562 35.867188 C 28.46875 36.375 27.953125 36.667969 27.417969 36.667969 C 27.195312 36.667969 26.96875 36.617188 26.757812 36.511719 C 26.035156 36.144531 25.746094 35.261719 26.113281 34.542969 Z M 36.875 27.359375 C 36.304688 26.789062 35.375 26.789062 34.804688 27.359375 C 34.230469 27.933594 34.230469 28.859375 34.804688 29.429688 L 36.984375 31.609375 L 34.804688 33.789062 C 34.230469 34.359375 34.230469 35.289062 34.804688 35.859375 C 35.089844 36.148438 35.464844 36.289062 35.839844 36.289062 C 36.214844 36.289062 36.589844 36.148438 36.875 35.859375 L 40.089844 32.644531 C 40.664062 32.074219 40.664062 31.148438 40.089844 30.574219 Z M 25.195312 30.191406 L 23.015625 28.011719 L 25.195312 25.832031 C 25.765625 25.261719 25.765625 24.332031 25.195312 23.761719 C 24.621094 23.1875 23.695312 23.1875 23.121094 23.761719 L 19.90625 26.976562 C 19.335938 27.546875 19.335938 28.476562 19.90625 29.046875 L 23.121094 32.261719 C 23.410156 32.546875 23.785156 32.691406 24.15625 32.691406 C 24.53125 32.691406 24.90625 32.546875 25.195312 32.261719 C 25.765625 31.691406 25.765625 30.761719 25.195312 30.191406 Z M 46.96875 7.296875 L 46.96875 52.707031 C 46.96875 55.53125 44.667969 57.832031 41.839844 57.832031 L 18.15625 57.832031 C 15.332031 57.832031 13.03125 55.53125 13.03125 52.707031 L 13.03125 7.296875 C 13.03125 4.46875 15.332031 2.167969 18.15625 2.167969 L 41.839844 2.167969 C 44.667969 2.167969 46.96875 4.46875 46.96875 7.296875 Z M 22.589844 5.097656 L 23.609375 7.296875 L 36.386719 7.296875 L 37.410156 5.097656 Z M 44.039062 7.296875 C 44.039062 6.082031 43.050781 5.097656 41.839844 5.097656 L 40.636719 5.097656 L 38.652344 9.375 C 38.410156 9.894531 37.894531 10.226562 37.324219 10.226562 L 22.675781 10.226562 C 22.105469 10.226562 21.585938 9.894531 21.347656 9.375 L 19.359375 5.097656 L 18.15625 5.097656 C 16.945312 5.097656 15.960938 6.082031 15.960938 7.296875 L 15.960938 52.707031 C 15.960938 53.917969 16.945312 54.902344 18.15625 54.902344 L 41.839844 54.902344 C 43.050781 54.902344 44.039062 53.917969 44.039062 52.707031 Z M 34.027344 50.265625 L 25.972656 50.265625 C 25.160156 50.265625 24.507812 50.917969 24.507812 51.730469 C 24.507812 52.539062 25.160156 53.195312 25.972656 53.195312 L 34.027344 53.195312 C 34.835938 53.195312 35.492188 52.539062 35.492188 51.730469 C 35.492188 50.917969 34.835938 50.265625 34.027344 50.265625 Z M 34.027344 50.265625 "/>
</clipPath>
</defs>
<g id="surface1">
<g clip-path="url(#clip1)" clip-rule="nonzero">
<g clip-path="url(#clip2)" clip-rule="evenodd">
<path style=" stroke:none;fill-rule:nonzero;fill:rgb(15.294118%,27.45098%,50.196078%);fill-opacity:1;" d="M 26.113281 34.542969 L 23.433594 33.1875 Z M 31.191406 24.511719 L 33.867188 25.867188 Z M 33.160156 23.867188 L 31.804688 26.542969 Z M 33.804688 25.835938 L 36.480469 27.191406 Z M 28.726562 35.867188 L 26.050781 34.507812 L 26.046875 34.511719 Z M 26.757812 36.511719 L 28.113281 33.835938 Z M 36.875 27.359375 L 34.753906 29.480469 Z M 34.804688 27.359375 L 36.925781 29.480469 Z M 34.804688 29.429688 L 32.683594 31.550781 Z M 36.984375 31.609375 L 39.105469 33.730469 L 41.226562 31.609375 L 39.105469 29.488281 Z M 34.804688 33.789062 L 36.925781 35.910156 Z M 34.804688 35.859375 L 36.925781 33.738281 Z M 25.195312 30.191406 L 23.074219 32.3125 Z M 23.015625 28.011719 L 20.894531 25.890625 L 18.773438 28.011719 L 20.894531 30.132812 Z M 25.195312 25.832031 L 23.074219 23.710938 Z M 25.195312 23.761719 L 23.074219 25.882812 Z M 23.121094 23.761719 L 25.242188 25.882812 Z M 19.90625 26.976562 L 17.785156 24.855469 Z M 23.121094 32.261719 L 25.242188 30.140625 Z M 22.589844 5.097656 L 22.589844 2.097656 L 17.890625 2.097656 L 19.867188 6.359375 Z M 23.609375 7.296875 L 20.886719 8.558594 L 21.695312 10.296875 L 23.609375 10.296875 Z M 36.386719 7.296875 L 36.386719 10.296875 L 38.304688 10.296875 L 39.109375 8.558594 Z M 37.410156 5.097656 L 40.128906 6.359375 L 42.109375 2.097656 L 37.410156 2.097656 Z M 40.636719 5.097656 L 40.636719 2.097656 L 38.722656 2.097656 L 37.917969 3.835938 Z M 38.652344 9.375 L 41.371094 10.640625 Z M 21.347656 9.375 L 18.625 10.640625 Z M 19.359375 5.097656 L 22.082031 3.835938 L 21.273438 2.097656 L 19.359375 2.097656 Z M 28.789062 35.898438 L 33.867188 25.867188 L 28.515625 23.15625 L 23.433594 33.1875 Z M 33.867188 25.867188 C 33.484375 26.625 32.5625 26.929688 31.804688 26.542969 L 34.519531 21.191406 C 32.316406 20.078125 29.632812 20.957031 28.515625 23.15625 Z M 31.804688 26.542969 C 31.050781 26.160156 30.746094 25.238281 31.128906 24.480469 L 36.480469 27.191406 C 37.597656 24.992188 36.71875 22.308594 34.515625 21.191406 Z M 31.128906 24.480469 L 26.050781 34.507812 L 31.402344 37.222656 L 36.480469 27.191406 Z M 26.046875 34.511719 C 26.320312 33.972656 26.863281 33.667969 27.417969 33.667969 L 27.417969 39.667969 C 29.039062 39.667969 30.613281 38.777344 31.402344 37.222656 Z M 27.417969 33.667969 C 27.65625 33.667969 27.894531 33.722656 28.113281 33.835938 L 25.398438 39.1875 C 26.042969 39.511719 26.734375 39.667969 27.417969 39.667969 Z M 28.113281 33.835938 C 28.867188 34.21875 29.171875 35.140625 28.789062 35.898438 L 23.433594 33.1875 C 22.320312 35.386719 23.199219 38.070312 25.398438 39.1875 Z M 38.996094 25.238281 C 37.253906 23.496094 34.425781 23.496094 32.683594 25.238281 L 36.925781 29.480469 C 36.324219 30.082031 35.355469 30.082031 34.753906 29.480469 Z M 32.683594 25.238281 C 30.9375 26.980469 30.9375 29.808594 32.683594 31.550781 L 36.925781 27.308594 C 37.523438 27.910156 37.523438 28.882812 36.925781 29.480469 Z M 32.683594 31.550781 L 34.863281 33.730469 L 39.105469 29.488281 L 36.925781 27.308594 Z M 34.863281 29.488281 L 32.683594 31.667969 L 36.925781 35.910156 L 39.105469 33.730469 Z M 32.683594 31.667969 C 30.9375 33.410156 30.9375 36.238281 32.683594 37.980469 L 36.925781 33.738281 C 37.523438 34.339844 37.523438 35.3125 36.925781 35.910156 Z M 32.683594 37.980469 C 33.554688 38.855469 34.703125 39.289062 35.839844 39.289062 L 35.839844 33.289062 C 36.226562 33.289062 36.625 33.441406 36.925781 33.738281 Z M 35.839844 39.289062 C 36.976562 39.289062 38.125 38.851562 38.996094 37.980469 L 34.753906 33.738281 C 35.054688 33.441406 35.453125 33.289062 35.839844 33.289062 Z M 38.996094 37.980469 L 42.210938 34.765625 L 37.96875 30.523438 L 34.753906 33.738281 Z M 42.210938 34.765625 C 43.957031 33.023438 43.957031 30.195312 42.210938 28.453125 L 37.96875 32.695312 C 37.371094 32.097656 37.371094 31.125 37.96875 30.523438 Z M 42.210938 28.453125 L 38.996094 25.238281 L 34.753906 29.480469 L 37.96875 32.695312 Z M 27.316406 28.070312 L 25.136719 25.890625 L 20.894531 30.132812 L 23.074219 32.3125 Z M 25.136719 30.132812 L 27.316406 27.953125 L 23.074219 23.710938 L 20.894531 25.890625 Z M 27.316406 27.953125 C 29.058594 26.210938 29.058594 23.382812 27.316406 21.640625 L 23.074219 25.882812 C 22.472656 25.28125 22.472656 24.308594 23.074219 23.710938 Z M 27.316406 21.640625 C 25.570312 19.894531 22.746094 19.894531 21 21.640625 L 25.242188 25.882812 C 24.644531 26.480469 23.671875 26.480469 23.074219 25.882812 Z M 21 21.640625 L 17.785156 24.855469 L 22.027344 29.097656 L 25.242188 25.882812 Z M 17.785156 24.855469 C 16.042969 26.597656 16.042969 29.425781 17.785156 31.167969 L 22.027344 26.925781 C 22.628906 27.523438 22.628906 28.496094 22.027344 29.097656 Z M 17.785156 31.167969 L 21 34.382812 L 25.242188 30.140625 L 22.027344 26.925781 Z M 21 34.382812 C 21.871094 35.253906 23.019531 35.691406 24.160156 35.691406 L 24.160156 29.691406 C 24.546875 29.691406 24.945312 29.839844 25.242188 30.140625 Z M 24.160156 35.691406 C 25.296875 35.691406 26.445312 35.253906 27.316406 34.382812 L 23.074219 30.140625 C 23.371094 29.839844 23.769531 29.691406 24.160156 29.691406 Z M 27.316406 34.382812 C 29.058594 32.640625 29.058594 29.8125 27.316406 28.070312 L 23.074219 32.3125 C 22.472656 31.710938 22.472656 30.738281 23.074219 30.140625 Z M 43.96875 7.296875 L 43.96875 52.707031 L 49.96875 52.707031 L 49.96875 7.296875 Z M 43.96875 52.707031 C 43.96875 53.875 43.011719 54.832031 41.839844 54.832031 L 41.839844 60.832031 C 46.324219 60.832031 49.96875 57.1875 49.96875 52.707031 Z M 41.839844 54.832031 L 18.15625 54.832031 L 18.15625 60.832031 L 41.839844 60.832031 Z M 18.15625 54.832031 C 16.988281 54.832031 16.03125 53.875 16.03125 52.707031 L 10.03125 52.707031 C 10.03125 57.1875 13.675781 60.832031 18.15625 60.832031 Z M 16.03125 52.707031 L 16.03125 7.296875 L 10.03125 7.296875 L 10.03125 52.707031 Z M 16.03125 7.296875 C 16.03125 6.125 16.988281 5.167969 18.15625 5.167969 L 18.15625 -0.832031 C 13.675781 -0.832031 10.03125 2.8125 10.03125 7.296875 Z M 18.15625 5.167969 L 41.839844 5.167969 L 41.839844 -0.832031 L 18.15625 -0.832031 Z M 41.839844 5.167969 C 43.011719 5.167969 43.96875 6.125 43.96875 7.296875 L 49.96875 7.296875 C 49.96875 2.8125 46.324219 -0.832031 41.839844 -0.832031 Z M 19.867188 6.359375 L 20.886719 8.558594 L 26.332031 6.03125 L 25.3125 3.835938 Z M 23.609375 10.296875 L 36.386719 10.296875 L 36.386719 4.296875 L 23.609375 4.296875 Z M 39.109375 8.558594 L 40.128906 6.359375 L 34.6875 3.835938 L 33.667969 6.03125 Z M 37.410156 2.097656 L 22.589844 2.097656 L 22.589844 8.097656 L 37.410156 8.097656 Z M 47.039062 7.296875 C 47.039062 4.425781 44.707031 2.097656 41.839844 2.097656 L 41.839844 8.097656 C 41.394531 8.097656 41.039062 7.738281 41.039062 7.296875 Z M 41.839844 2.097656 L 40.636719 2.097656 L 40.636719 8.097656 L 41.839844 8.097656 Z M 37.917969 3.835938 L 35.929688 8.113281 L 41.371094 10.640625 L 43.359375 6.359375 Z M 35.929688 8.113281 C 36.183594 7.570312 36.726562 7.226562 37.324219 7.226562 L 37.324219 13.226562 C 39.0625 13.226562 40.640625 12.214844 41.371094 10.640625 Z M 37.324219 7.226562 L 22.675781 7.226562 L 22.675781 13.226562 L 37.324219 13.226562 Z M 22.675781 7.226562 C 23.273438 7.226562 23.816406 7.570312 24.066406 8.113281 L 18.625 10.640625 C 19.355469 12.214844 20.9375 13.226562 22.675781 13.226562 Z M 24.066406 8.113281 L 22.082031 3.835938 L 16.636719 6.359375 L 18.625 10.640625 Z M 19.359375 2.097656 L 18.15625 2.097656 L 18.15625 8.097656 L 19.359375 8.097656 Z M 18.15625 2.097656 C 15.289062 2.097656 12.960938 4.425781 12.960938 7.296875 L 18.960938 7.296875 C 18.960938 7.738281 18.601562 8.097656 18.15625 8.097656 Z M 12.960938 7.296875 L 12.960938 52.707031 L 18.960938 52.707031 L 18.960938 7.296875 Z M 12.960938 52.707031 C 12.960938 55.574219 15.289062 57.902344 18.15625 57.902344 L 18.15625 51.902344 C 18.601562 51.902344 18.960938 52.261719 18.960938 52.707031 Z M 18.15625 57.902344 L 41.839844 57.902344 L 41.839844 51.902344 L 18.15625 51.902344 Z M 41.839844 57.902344 C 44.707031 57.902344 47.039062 55.574219 47.039062 52.707031 L 41.039062 52.707031 C 41.039062 52.261719 41.394531 51.902344 41.839844 51.902344 Z M 47.039062 52.707031 L 47.039062 7.296875 L 41.039062 7.296875 L 41.039062 52.707031 Z M 34.027344 47.265625 L 25.972656 47.265625 L 25.972656 53.265625 L 34.027344 53.265625 Z M 25.972656 47.265625 C 23.503906 47.265625 21.507812 49.261719 21.507812 51.730469 L 27.507812 51.730469 C 27.507812 52.578125 26.820312 53.265625 25.972656 53.265625 Z M 21.507812 51.730469 C 21.507812 54.195312 23.503906 56.195312 25.972656 56.195312 L 25.972656 50.195312 C 26.820312 50.195312 27.507812 50.878906 27.507812 51.730469 Z M 25.972656 56.195312 L 34.027344 56.195312 L 34.027344 50.195312 L 25.972656 50.195312 Z M 34.027344 56.195312 C 36.492188 56.195312 38.492188 54.195312 38.492188 51.730469 L 32.492188 51.730469 C 32.492188 50.878906 33.179688 50.195312 34.027344 50.195312 Z M 38.492188 51.730469 C 38.492188 49.261719 36.492188 47.265625 34.027344 47.265625 L 34.027344 53.265625 C 33.179688 53.265625 32.492188 52.578125 32.492188 51.730469 Z M 38.492188 51.730469 "/>
</g>
</g>
</g>
</svg>
