<svg width="60" height="60" viewBox="0 0 60 60" fill="none" xmlns="http://www.w3.org/2000/svg">
<mask id="path-1-inside-1_33012_89" fill="white">
<path d="M53.1417 3.73633H6.85603C4.49031 3.73633 2.57031 5.65633 2.57031 8.02204V38.2192V44.3392C2.57031 46.7049 4.49031 48.6249 6.85603 48.6249H23.0646C22.4046 50.2535 20.6303 53.382 16.456 54.5906H13.2503C12.7875 54.5906 12.4189 54.9592 12.4189 55.422C12.4189 55.8849 12.7875 56.2535 13.2503 56.2535H16.5846H43.396H46.7303C47.1932 56.2535 47.5617 55.8849 47.5617 55.422C47.5617 54.9592 47.1932 54.5906 46.7303 54.5906H43.5246C39.3503 53.382 37.576 50.2535 36.916 48.6249H53.1417C55.5075 48.6249 57.4275 46.7049 57.4275 44.3392V38.2192V8.02204C57.4275 5.65633 55.5075 3.73633 53.1417 3.73633ZM55.7646 8.02204V12.6078H31.6189C30.5989 12.6078 29.6732 12.042 29.2103 11.1335L26.2789 5.39061H53.1417C54.5903 5.39919 55.7646 6.57347 55.7646 8.02204ZM6.85603 5.39919H24.4017L27.7189 11.8963C28.4732 13.362 29.9646 14.2792 31.6103 14.2792H55.756V37.3963H4.23317V8.02204C4.23317 6.57347 5.40746 5.39919 6.85603 5.39919ZM55.7646 44.3392C55.7646 45.7878 54.5817 46.9706 53.1332 46.9706H35.776H24.2217H6.8646C5.41603 46.9706 4.23317 45.7878 4.23317 44.3392V39.0506H55.7646V44.3392ZM39.6417 54.5992H20.356C23.2189 52.6363 24.4275 49.8763 24.8475 48.6335H35.1675C35.5789 49.8763 36.7789 52.6449 39.6417 54.5992Z"/>
</mask>
<path d="M23.0646 48.6249L25.845 49.7517L27.5174 45.6249H23.0646V48.6249ZM16.456 54.5906V57.5906H16.8816L17.2903 57.4723L16.456 54.5906ZM43.5246 54.5906L42.6903 57.4723L43.099 57.5906H43.5246V54.5906ZM36.916 48.6249V45.6249H32.4632L34.1357 49.7517L36.916 48.6249ZM55.7646 12.6078V15.6078H58.7646V12.6078H55.7646ZM29.2103 11.1335L31.8834 9.77169L31.8823 9.76954L29.2103 11.1335ZM26.2789 5.39061V2.39061H21.3793L23.6069 6.75454L26.2789 5.39061ZM53.1417 5.39061L53.1595 2.39067L53.1506 2.39061H53.1417V5.39061ZM24.4017 5.39919L27.0736 4.03503L26.2385 2.39919H24.4017V5.39919ZM27.7189 11.8963L25.047 13.2605L25.0514 13.2691L27.7189 11.8963ZM55.756 14.2792H58.756V11.2792H55.756V14.2792ZM55.756 37.3963V40.3963H58.756V37.3963H55.756ZM4.23317 37.3963H1.23317V40.3963H4.23317V37.3963ZM4.23317 39.0506V36.0506H1.23317V39.0506H4.23317ZM55.7646 39.0506H58.7646V36.0506H55.7646V39.0506ZM39.6417 54.5992V57.5992H49.3575L41.3331 52.1214L39.6417 54.5992ZM20.356 54.5992L18.6596 52.1249L10.6753 57.5992H20.356V54.5992ZM24.8475 48.6335V45.6335H22.6946L22.0054 47.673L24.8475 48.6335ZM35.1675 48.6335L38.0155 47.6907L37.3345 45.6335H35.1675V48.6335ZM53.1417 0.736328H6.85603V6.73633H53.1417V0.736328ZM6.85603 0.736328C2.83346 0.736328 -0.429688 3.99947 -0.429688 8.02204H5.57031C5.57031 7.31318 6.14717 6.73633 6.85603 6.73633V0.736328ZM-0.429688 8.02204V38.2192H5.57031V8.02204H-0.429688ZM-0.429688 38.2192V44.3392H5.57031V38.2192H-0.429688ZM-0.429688 44.3392C-0.429688 48.3618 2.83346 51.6249 6.85603 51.6249V45.6249C6.14717 45.6249 5.57031 45.048 5.57031 44.3392H-0.429688ZM6.85603 51.6249H23.0646V45.6249H6.85603V51.6249ZM20.2842 47.4981C19.8011 48.6903 18.5564 50.8593 15.6217 51.709L17.2903 57.4723C22.7042 55.9048 25.0081 51.8167 25.845 49.7517L20.2842 47.4981ZM16.456 51.5906H13.2503V57.5906H16.456V51.5906ZM13.2503 51.5906C11.1306 51.5906 9.41888 53.3024 9.41888 55.422H15.4189C15.4189 56.616 14.4443 57.5906 13.2503 57.5906V51.5906ZM9.41888 55.422C9.41888 57.5418 11.1306 59.2535 13.2503 59.2535V53.2535C14.4443 53.2535 15.4189 54.228 15.4189 55.422H9.41888ZM13.2503 59.2535H16.5846V53.2535H13.2503V59.2535ZM16.5846 59.2535H43.396V53.2535H16.5846V59.2535ZM43.396 59.2535H46.7303V53.2535H43.396V59.2535ZM46.7303 59.2535C48.85 59.2535 50.5617 57.5418 50.5617 55.422H44.5617C44.5617 54.228 45.5363 53.2535 46.7303 53.2535V59.2535ZM50.5617 55.422C50.5617 53.3023 48.85 51.5906 46.7303 51.5906V57.5906C45.5363 57.5906 44.5617 56.616 44.5617 55.422H50.5617ZM46.7303 51.5906H43.5246V57.5906H46.7303V51.5906ZM44.3589 51.709C41.4242 50.8593 40.1795 48.6903 39.6964 47.4981L34.1357 49.7517C34.9725 51.8167 37.2764 55.9048 42.6903 57.4723L44.3589 51.709ZM36.916 51.6249H53.1417V45.6249H36.916V51.6249ZM53.1417 51.6249C57.1643 51.6249 60.4275 48.3618 60.4275 44.3392H54.4275C54.4275 45.048 53.8506 45.6249 53.1417 45.6249V51.6249ZM60.4275 44.3392V38.2192H54.4275V44.3392H60.4275ZM60.4275 38.2192V8.02204H54.4275V38.2192H60.4275ZM60.4275 8.02204C60.4275 3.99947 57.1643 0.736328 53.1417 0.736328V6.73633C53.8506 6.73633 54.4275 7.31318 54.4275 8.02204H60.4275ZM52.7646 8.02204V12.6078H58.7646V8.02204H52.7646ZM55.7646 9.60776H31.6189V15.6078H55.7646V9.60776ZM31.6189 9.60776C31.7236 9.60776 31.8326 9.67189 31.8834 9.77169L26.5372 12.4952C27.5138 14.4122 29.4742 15.6078 31.6189 15.6078V9.60776ZM31.8823 9.76954L28.9509 4.02669L23.6069 6.75454L26.5383 12.4974L31.8823 9.76954ZM26.2789 8.39061H53.1417V2.39061H26.2789V8.39061ZM53.124 8.39056C52.933 8.38943 52.7646 8.23371 52.7646 8.02204H58.7646C58.7646 4.91323 56.2476 2.40894 53.1595 2.39067L53.124 8.39056ZM6.85603 8.39919H24.4017V2.39919H6.85603V8.39919ZM21.7298 6.76334L25.047 13.2605L30.3908 10.5322L27.0736 4.03503L21.7298 6.76334ZM25.0514 13.2691C26.3151 15.7248 28.8305 17.2792 31.6103 17.2792V11.2792C31.0987 11.2792 30.6312 10.9993 30.3864 10.5236L25.0514 13.2691ZM31.6103 17.2792H55.756V11.2792H31.6103V17.2792ZM52.756 14.2792V37.3963H58.756V14.2792H52.756ZM55.756 34.3963H4.23317V40.3963H55.756V34.3963ZM7.23317 37.3963V8.02204H1.23317V37.3963H7.23317ZM7.23317 8.02204C7.23317 8.23033 7.06431 8.39919 6.85603 8.39919V2.39919C3.7506 2.39919 1.23317 4.91662 1.23317 8.02204H7.23317ZM52.7646 44.3392C52.7646 44.1309 52.9249 43.9706 53.1332 43.9706V49.9706C56.2386 49.9706 58.7646 47.4446 58.7646 44.3392H52.7646ZM53.1332 43.9706H35.776V49.9706H53.1332V43.9706ZM35.776 43.9706H24.2217V49.9706H35.776V43.9706ZM24.2217 43.9706H6.8646V49.9706H24.2217V43.9706ZM6.8646 43.9706C7.07288 43.9706 7.23317 44.1309 7.23317 44.3392H1.23317C1.23317 47.4446 3.75917 49.9706 6.8646 49.9706V43.9706ZM7.23317 44.3392V39.0506H1.23317V44.3392H7.23317ZM4.23317 42.0506H55.7646V36.0506H4.23317V42.0506ZM52.7646 39.0506V44.3392H58.7646V39.0506H52.7646ZM39.6417 51.5992H20.356V57.5992H39.6417V51.5992ZM22.0525 57.0735C25.6665 54.5956 27.1646 51.1473 27.6896 49.5939L22.0054 47.673C21.6903 48.6053 20.7713 50.6771 18.6596 52.1249L22.0525 57.0735ZM24.8475 51.6335H35.1675V45.6335H24.8475V51.6335ZM32.3194 49.5763C32.8358 51.1362 34.3265 54.6031 37.9504 57.0769L41.3331 52.1214C39.2313 50.6867 38.3219 48.6164 38.0155 47.6907L32.3194 49.5763Z" fill="#274680" mask="url(#path-1-inside-1_33012_89)"/>
<path d="M28.7142 43.8425H31.2942C31.7571 43.8425 32.1257 43.474 32.1257 43.0111C32.1257 42.5483 31.7571 42.1797 31.2942 42.1797H28.7142C28.2514 42.1797 27.8828 42.5483 27.8828 43.0111C27.8828 43.474 28.2514 43.8425 28.7142 43.8425Z" fill="#005AAB"/>
<path d="M51.2064 9.83083H52.7321C53.195 9.83083 53.5636 9.46225 53.5636 8.9994C53.5636 8.53654 53.195 8.16797 52.7321 8.16797H51.2064C50.7436 8.16797 50.375 8.53654 50.375 8.9994C50.375 9.46225 50.7521 9.83083 51.2064 9.83083Z" fill="#005AAB"/>
<path d="M45.8549 9.83083H47.3806C47.8434 9.83083 48.212 9.46225 48.212 8.9994C48.212 8.53654 47.8434 8.16797 47.3806 8.16797H45.8549C45.392 8.16797 45.0234 8.53654 45.0234 8.9994C45.0234 9.46225 45.392 9.83083 45.8549 9.83083Z" fill="#005AAB"/>
<path d="M40.4994 9.83083H42.0251C42.488 9.83083 42.8565 9.46225 42.8565 8.9994C42.8565 8.53654 42.488 8.16797 42.0251 8.16797H40.4994C40.0365 8.16797 39.668 8.53654 39.668 8.9994C39.668 9.46225 40.0365 9.83083 40.4994 9.83083Z" fill="#005AAB"/>
<path d="M9.40174 28.6101H11.8789C12.3417 28.6101 12.7103 28.2416 12.7103 27.7787C12.7103 27.3158 12.3417 26.9473 11.8789 26.9473H9.40174C8.93888 26.9473 8.57031 27.3158 8.57031 27.7787C8.57031 28.233 8.94746 28.6101 9.40174 28.6101Z" fill="#005AAB"/>
<path d="M17.5189 28.6101H32.8104C33.2732 28.6101 33.6418 28.2416 33.6418 27.7787C33.6418 27.3158 33.2732 26.9473 32.8104 26.9473H17.5189C17.0561 26.9473 16.6875 27.3158 16.6875 27.7787C16.6875 28.233 17.0646 28.6101 17.5189 28.6101Z" fill="#005AAB"/>
<path d="M9.40174 33.6843H11.8789C12.3417 33.6843 12.7103 33.3158 12.7103 32.8529C12.7103 32.3901 12.3417 32.0215 11.8789 32.0215H9.40174C8.93888 32.0215 8.57031 32.3901 8.57031 32.8529C8.57031 33.3072 8.94746 33.6843 9.40174 33.6843Z" fill="#005AAB"/>
<path d="M17.5189 33.6843H28.8932C29.3561 33.6843 29.7246 33.3158 29.7246 32.8529C29.7246 32.3901 29.3561 32.0215 28.8932 32.0215H17.5189C17.0561 32.0215 16.6875 32.3901 16.6875 32.8529C16.6875 33.3072 17.0646 33.6843 17.5189 33.6843Z" fill="#005AAB"/>
<path d="M36.1517 33.6843H44.4575C44.9203 33.6843 45.2889 33.3158 45.2889 32.8529C45.2889 32.3901 44.9203 32.0215 44.4575 32.0215H36.1517C35.6889 32.0215 35.3203 32.3901 35.3203 32.8529C35.3203 33.3072 35.6889 33.6843 36.1517 33.6843Z" fill="#005AAB"/>
<path d="M9.40174 18.4617H11.8789C12.3417 18.4617 12.7103 18.0931 12.7103 17.6303C12.7103 17.1674 12.3417 16.7988 11.8789 16.7988H9.40174C8.93888 16.7988 8.57031 17.1674 8.57031 17.6303C8.57031 18.0931 8.94746 18.4617 9.40174 18.4617Z" fill="#005AAB"/>
<path d="M9.40174 23.5359H11.8789C12.3417 23.5359 12.7103 23.1673 12.7103 22.7045C12.7103 22.2416 12.3417 21.873 11.8789 21.873H9.40174C8.93888 21.873 8.57031 22.2416 8.57031 22.7045C8.57031 23.1673 8.94746 23.5359 9.40174 23.5359Z" fill="#005AAB"/>
<path d="M17.5189 18.4617H20.5532C21.0161 18.4617 21.3846 18.0931 21.3846 17.6303C21.3846 17.1674 21.0161 16.7988 20.5532 16.7988H17.5189C17.0561 16.7988 16.6875 17.1674 16.6875 17.6303C16.6875 18.0931 17.0646 18.4617 17.5189 18.4617Z" fill="#005AAB"/>
<path d="M24.6596 18.4617H31.0624C31.5253 18.4617 31.8938 18.0931 31.8938 17.6303C31.8938 17.1674 31.5253 16.7988 31.0624 16.7988H24.6596C24.1967 16.7988 23.8281 17.1674 23.8281 17.6303C23.8281 18.0931 24.2053 18.4617 24.6596 18.4617Z" fill="#005AAB"/>
<path d="M17.5189 23.5359H24.2904C24.7532 23.5359 25.1218 23.1673 25.1218 22.7045C25.1218 22.2416 24.7532 21.873 24.2904 21.873H17.5189C17.0561 21.873 16.6875 22.2416 16.6875 22.7045C16.6875 23.1673 17.0646 23.5359 17.5189 23.5359Z" fill="#005AAB"/>
<path d="M41.1835 29.4936C41.2777 29.5279 41.372 29.545 41.4663 29.545C41.8092 29.545 42.1263 29.3307 42.2463 28.9964L45.572 19.6879C45.7263 19.2593 45.5035 18.7793 45.0663 18.625C44.6377 18.4707 44.1577 18.6936 44.0035 19.1307L40.6777 28.4393C40.5235 28.8679 40.7463 29.3393 41.1835 29.4936Z" fill="#005AAB"/>
<path d="M46.6104 28.5512C46.7733 28.714 46.9876 28.7911 47.2018 28.7911C47.4161 28.7911 47.6304 28.714 47.7933 28.5512L50.159 26.1854C50.3133 26.0311 50.399 25.8169 50.399 25.594C50.399 25.3712 50.3133 25.1654 50.159 25.0026L47.7933 22.6369C47.4676 22.3111 46.9447 22.3111 46.619 22.6369C46.2933 22.9626 46.2933 23.4854 46.619 23.8112L48.4018 25.594L46.619 27.3683C46.2847 27.7026 46.2847 28.2254 46.6104 28.5512Z" fill="#005AAB"/>
<path d="M38.4604 25.4742C38.6233 25.6371 38.8376 25.7142 39.0519 25.7142C39.2661 25.7142 39.4804 25.6371 39.6433 25.4742C39.969 25.1485 39.969 24.6256 39.6433 24.2999L37.8604 22.5256L39.6433 20.7428C39.969 20.4171 39.969 19.8942 39.6433 19.5685C39.3176 19.2428 38.7947 19.2428 38.469 19.5685L36.1033 21.9342C35.949 22.0885 35.8633 22.3028 35.8633 22.5256C35.8633 22.7485 35.949 22.9542 36.1033 23.1171L38.4604 25.4742Z" fill="#005AAB"/>
</svg>
