<svg width="40" height="40" viewBox="0 0 40 40" fill="none" xmlns="http://www.w3.org/2000/svg">
<path d="M20.044 40H19.956C8.95238 40 0 31.0476 0 20.044V19.956C0 8.9524 8.95238 0 19.956 0H20.044C31.0476 0 40 8.9524 40 19.956V20.044C40 31.0476 31.0476 40 20.044 40ZM19.956 1.35396C9.69841 1.35396 1.35396 9.69843 1.35396 19.956V20.044C1.35396 30.3016 9.69841 38.646 19.956 38.646H20.044C30.3016 38.646 38.646 30.3016 38.646 20.044V19.956C38.646 9.69843 30.3016 1.35396 20.044 1.35396H19.956Z" fill="white" fill-opacity="0.8"/>
<path d="M22.6895 15.5149V19.7244H27.8968L27.0723 25.3948H22.6895V38.4591C21.8108 38.581 20.9118 38.6446 19.9992 38.6446C18.9458 38.6446 17.9114 38.5607 16.9041 38.3982V25.3948H12.1016V19.7244H16.9041V14.5739C16.9041 11.3786 19.4942 8.78711 22.6909 8.78711V8.78982C22.7004 8.78982 22.7085 8.78711 22.718 8.78711H27.8982V13.6911H24.5133C23.5073 13.6911 22.6909 14.5076 22.6909 15.5136L22.6895 15.5149Z" fill="white" fill-opacity="0.8"/>
</svg>
