<svg width="40" height="40" viewBox="0 0 40 40" fill="none" xmlns="http://www.w3.org/2000/svg">
<path d="M20.044 40H19.956C8.95238 40 0 31.0476 0 20.044V19.956C0 8.95236 8.95238 0 19.956 0H20.044C31.0476 0 40 8.95236 40 19.956V20.044C40 31.0476 31.0476 40 20.044 40ZM19.956 1.35396C9.69841 1.35396 1.35396 9.69839 1.35396 19.956V20.044C1.35396 30.3016 9.69841 38.646 19.956 38.646H20.044C30.3016 38.646 38.646 30.3016 38.646 20.044V19.956C38.646 9.69839 30.3016 1.35396 20.044 1.35396H19.956Z" fill="white" fill-opacity="0.8"/>
<path d="M8.51645 9.42578L17.4282 21.3406L8.46094 31.0282H10.4797L18.3313 22.547L24.6746 31.0282H31.5432L22.1305 18.4432L30.4777 9.42578H28.4589L21.2288 17.2368L15.3864 9.42578H8.51779H8.51645ZM11.4843 10.9125H14.6391L28.5726 29.5416H25.4179L11.4843 10.9125Z" fill="white" fill-opacity="0.8"/>
</svg>
