<svg width="40" height="40" viewBox="0 0 40 40" fill="none" xmlns="http://www.w3.org/2000/svg">
<path d="M20.044 40H19.956C8.95239 40 0 31.0476 0 20.044V19.956C0 8.95239 8.95239 0 19.956 0H20.044C31.0476 0 40 8.95239 40 19.956V20.044C40 31.0476 31.0476 40 20.044 40ZM19.956 1.35396C9.69842 1.35396 1.35396 9.69842 1.35396 19.956V20.044C1.35396 30.3016 9.69842 38.646 19.956 38.646H20.044C30.3016 38.646 38.646 30.3016 38.646 20.044V19.956C38.646 9.69842 30.3016 1.35396 20.044 1.35396H19.956Z" fill="white" fill-opacity="0.8"/>
<path d="M9.89507 13.5226C9.38599 13.0501 9.13281 12.4652 9.13281 11.7692C9.13281 11.0733 9.38734 10.4627 9.89507 9.98877C10.4042 9.51624 11.0595 9.2793 11.8624 9.2793C12.6653 9.2793 13.2949 9.51624 13.8026 9.98877C14.3117 10.4613 14.5649 11.0557 14.5649 11.7692C14.5649 12.4828 14.3103 13.0501 13.8026 13.5226C13.2935 13.9951 12.6477 14.2321 11.8624 14.2321C11.0771 14.2321 10.4042 13.9951 9.89507 13.5226ZM14.137 16.2332V30.7206H9.5593V16.2332H14.137Z" fill="white" fill-opacity="0.8"/>
<path d="M29.3771 17.6638C30.3749 18.747 30.8732 20.2337 30.8732 22.1265V30.4641H26.5257V22.7141C26.5257 21.7595 26.2779 21.0176 25.7837 20.4895C25.2895 19.9615 24.6234 19.6961 23.7893 19.6961C22.9553 19.6961 22.2891 19.9601 21.7949 20.4895C21.3007 21.0176 21.0529 21.7595 21.0529 22.7141V30.4641H16.6797V16.1921H21.0529V18.0849C21.4957 17.454 22.0928 16.9557 22.8429 16.5888C23.593 16.2219 24.4365 16.0391 25.3748 16.0391C27.0456 16.0391 28.3806 16.5806 29.3771 17.6638Z" fill="white" fill-opacity="0.8"/>
</svg>
