<svg width="213" height="40" viewBox="0 0 213 40" fill="none" xmlns="http://www.w3.org/2000/svg">
<path d="M22.0001 1.09588L14.5001 8.59588H10.0502C9.7478 8.59588 9.45784 8.71598 9.24405 8.92977C9.03026 9.14356 8.91015 9.43354 8.91015 9.73589V14.1909L1.41016 21.6909V6.69088C1.41211 5.95162 1.56015 5.22005 1.84577 4.5382C2.13139 3.85635 2.54896 3.23767 3.07448 2.71773C3.59999 2.1978 4.22308 1.78684 4.90794 1.50851C5.5928 1.23017 6.32592 1.08994 7.06515 1.09588H22.0001Z" fill="#0E3642"/>
<path d="M20.197 32.1895V38.9395H7.06203C5.57544 38.9369 4.15056 38.3448 3.09985 37.2932C2.04914 36.2415 1.45835 34.8161 1.45703 33.3296V32.1895H20.197Z" fill="#E74C1C"/>
<path d="M39.3052 20.6896V33.3146C39.306 34.0762 39.1512 34.83 38.8502 35.5296C38.7602 35.7363 38.6602 35.9363 38.5502 36.1296C38.4395 36.3156 38.3194 36.4959 38.1902 36.6696C37.6704 37.3729 36.9919 37.9437 36.21 38.3355C35.4281 38.7273 34.5648 38.9291 33.6902 38.9246H22.9052L30.4052 31.6896L30.4552 31.6396C30.7757 31.3043 30.9547 30.8584 30.9552 30.3946V23.7696C30.9552 23.3585 30.7919 22.9643 30.5012 22.6736C30.2105 22.3829 29.8163 22.2196 29.4052 22.2196H24.9052H15.2852L19.5302 17.9746L19.8502 17.6546L20.4702 17.0346C21.1102 16.3946 21.7602 15.7496 22.4052 15.0996H33.7202C35.1999 15.1075 36.6166 15.6991 37.6625 16.7459C38.7083 17.7927 39.2986 19.2099 39.3052 20.6896Z" fill="black"/>
<path d="M39.3053 6.68985V16.0399C39.1619 15.8699 39.0119 15.7032 38.8553 15.5399C38.1785 14.8612 37.3742 14.3232 36.4886 13.9568C35.603 13.5903 34.6537 13.4028 33.6953 13.4048H30.3203C30.3203 10.9048 30.3203 8.40485 30.3203 5.93484C30.3203 5.16985 30.3203 4.16985 30.3603 3.28485C30.3603 2.49485 30.3953 1.73484 30.4003 1.08984H33.6953C35.181 1.09116 36.6056 1.68126 37.6572 2.7309C38.7087 3.78053 39.3013 5.20413 39.3053 6.68985Z" fill="black"/>
<path d="M29.267 30.4106C29.2652 30.442 29.2529 30.472 29.232 30.4956L21.882 37.5806V30.7756C21.882 30.7026 21.853 30.6327 21.8015 30.5811C21.7499 30.5295 21.68 30.5006 21.607 30.5006H1.45703V24.0006L1.89703 23.5606L24.397 1.06055H28.727C28.727 1.71055 28.727 2.47555 28.687 3.22055C28.687 4.16055 28.647 5.13054 28.647 5.90054C28.647 8.40054 28.647 10.9006 28.647 13.4006H22.307C21.867 13.4006 21.627 13.4556 21.492 13.5906C18.117 16.9706 14.772 20.3156 11.552 23.5256C11.5253 23.5508 11.5054 23.5824 11.4941 23.6173C11.4827 23.6522 11.4803 23.6895 11.487 23.7256C11.4921 23.7615 11.5069 23.7954 11.5298 23.8236C11.5527 23.8518 11.5829 23.8732 11.617 23.8856C11.7083 23.9231 11.8107 23.9231 11.902 23.8856L29.242 23.9106L29.267 30.4106Z" fill="#025B95"/>
<path d="M59.9775 28.8262C56.6861 28.8837 53.4971 27.6818 51.0625 25.4661L53.7925 22.1962C55.8525 23.8962 57.9442 24.7461 60.0675 24.7461C60.8445 24.7882 61.6166 24.6004 62.2875 24.2062C62.5382 24.0477 62.7442 23.8277 62.886 23.5672C63.0277 23.3068 63.1006 23.0144 63.0976 22.7178C63.0946 22.4212 63.0158 22.1304 62.8688 21.8728C62.7218 21.6152 62.5113 21.3995 62.2575 21.2461C61.1888 20.6871 60.048 20.2783 58.8675 20.0311C57.8785 19.7965 56.905 19.5009 55.9525 19.1461C55.2022 18.8505 54.4917 18.4626 53.8375 17.9911C53.1872 17.5357 52.6779 16.9068 52.3675 16.1761C52.0381 15.3412 51.8799 14.4485 51.9025 13.5511C51.873 12.6794 52.0428 11.8124 52.3989 11.0161C52.755 10.2199 53.2881 9.51534 53.9575 8.95614C55.4549 7.75299 57.3383 7.13463 59.2575 7.21612C62.0908 7.16489 64.8519 8.11183 67.0575 9.89113L64.6575 13.3912C62.6775 12.0112 60.8575 11.3212 59.1975 11.3212C58.4944 11.2685 57.7931 11.4439 57.1975 11.8212C56.9753 11.972 56.794 12.1757 56.6701 12.414C56.5462 12.6523 56.4834 12.9176 56.4875 13.1861C56.4744 13.4977 56.5496 13.8066 56.7044 14.0773C56.8592 14.348 57.0873 14.5695 57.3625 14.7161C58.532 15.2635 59.7598 15.6761 61.0225 15.9462C63.3025 16.5462 64.9825 17.3162 66.0625 18.2562C67.1425 19.1962 67.6825 20.5478 67.6825 22.3111C67.7267 23.2183 67.5585 24.1233 67.1913 24.954C66.8241 25.7847 66.2681 26.5182 65.5675 27.0961C64.1608 28.2495 62.2975 28.8262 59.9775 28.8262Z" fill="black"/>
<path d="M74.6237 33.4145C73.198 33.4184 71.7982 33.0348 70.5738 32.3045L72.1038 29.0045C72.6847 29.3873 73.3586 29.6051 74.0537 29.6345C74.394 29.6418 74.7286 29.5452 75.0126 29.3577C75.2967 29.1701 75.5168 28.9004 75.6438 28.5845L69.3438 12.4395H74.1637L77.8238 23.3945L81.3238 12.4395H86.0638L79.8788 28.9395C79.2588 30.6062 78.5588 31.7729 77.7788 32.4395C76.8801 33.1363 75.7588 33.4828 74.6237 33.4145Z" fill="black"/>
<path d="M88.7891 28.5251V12.4401H93.3541V14.7201C94.6874 13.0001 96.2574 12.1401 98.0641 12.1401C98.8061 12.1006 99.5479 12.2222 100.238 12.4967C100.929 12.7711 101.552 13.1919 102.064 13.7301C103.024 14.7901 103.504 16.2501 103.504 18.1101V28.5251H98.9641V19.5501C99.0234 18.6799 98.7678 17.8175 98.2441 17.1201C97.9891 16.8357 97.6733 16.6125 97.3201 16.467C96.9669 16.3216 96.5854 16.2577 96.2041 16.2801C95.8165 16.2608 95.4293 16.3259 95.0693 16.4709C94.7093 16.616 94.3851 16.8374 94.1191 17.1201C93.5679 17.8052 93.2948 18.6727 93.3541 19.5501V28.5251H88.7891Z" fill="black"/>
<path d="M115.079 28.885C113.965 28.9179 112.856 28.7188 111.823 28.3005C110.79 27.8822 109.856 27.2537 109.079 26.455C108.324 25.6382 107.737 24.6806 107.352 23.637C106.967 22.5934 106.791 21.4841 106.835 20.3726C106.878 19.2611 107.14 18.1691 107.606 17.1589C108.072 16.1487 108.732 15.2401 109.549 14.485C110.366 13.7299 111.323 13.1431 112.367 12.758C113.41 12.373 114.52 12.1973 115.631 12.2409C116.743 12.2845 117.835 12.5467 118.845 13.0124C119.855 13.478 120.764 14.1382 121.519 14.955L118.849 17.655C117.856 16.65 116.506 16.0785 115.094 16.065C114.561 16.0554 114.034 16.1664 113.551 16.3899C113.068 16.6133 112.641 16.9432 112.304 17.355C111.558 18.232 111.162 19.354 111.194 20.505C111.157 21.6655 111.558 22.7974 112.319 23.6749C112.686 24.0935 113.141 24.4251 113.653 24.6456C114.164 24.8661 114.717 24.9701 115.274 24.95C116.534 24.95 117.774 24.38 118.969 23.24L121.639 25.94C120.841 26.8366 119.885 27.5789 118.819 28.13C117.647 28.6657 116.367 28.9241 115.079 28.885Z" fill="black"/>
<path d="M134.531 28.5252V23.9952H124.266L123.516 20.7202L135.041 7.36523H138.941V20.2402H141.761V23.9952H138.941V28.5252H134.531ZM128.946 20.2402H134.531V13.6902L128.946 20.2402Z" fill="black"/>
<path d="M150.665 28.5256V11.7806H144.285V7.51562H161.69V11.7806H155.3V28.5256H150.665Z" fill="black"/>
<path d="M169.224 28.8845C168.113 28.9225 167.006 28.7362 165.97 28.3368C164.933 27.9373 163.987 27.3328 163.189 26.5594C162.397 25.7694 161.778 24.824 161.37 23.7827C160.962 22.7414 160.775 21.6269 160.819 20.5094C160.765 18.3116 161.572 16.1798 163.069 14.5694C163.789 13.7779 164.672 13.1511 165.656 12.7318C166.641 12.3124 167.704 12.1104 168.774 12.1395C171.314 12.1395 173.254 12.9728 174.594 14.6395C175.962 16.4143 176.669 18.61 176.594 20.8494C176.594 21.0944 176.594 21.4944 176.534 22.0544H165.349C165.509 22.9703 165.989 23.7995 166.704 24.3944C167.444 24.9558 168.356 25.2422 169.284 25.2045C170.75 25.1856 172.15 24.5933 173.184 23.5544L175.794 25.8644C175.013 26.8483 174.011 27.6344 172.87 28.1591C171.728 28.6837 170.479 28.9323 169.224 28.8845ZM165.289 19.2194H172.164C172.077 18.29 171.693 17.4133 171.069 16.7194C170.774 16.4113 170.416 16.1691 170.021 16.0088C169.625 15.8486 169.2 15.7738 168.774 15.7894C168.349 15.7774 167.926 15.8523 167.532 16.0097C167.137 16.167 166.779 16.4035 166.479 16.7045C165.828 17.3974 165.412 18.2771 165.289 19.2194Z" fill="black"/>
<path d="M187.59 28.885C186.477 28.9179 185.368 28.7188 184.335 28.3005C183.302 27.8822 182.368 27.2537 181.59 26.455C180.835 25.6382 180.249 24.6806 179.864 23.637C179.478 22.5934 179.303 21.4841 179.346 20.3726C179.39 19.2611 179.652 18.1691 180.118 17.1589C180.584 16.1487 181.244 15.2401 182.06 14.485C182.877 13.7299 183.835 13.1431 184.878 12.758C185.922 12.373 187.031 12.1973 188.143 12.2409C189.254 12.2845 190.346 12.5467 191.357 13.0124C192.367 13.478 193.275 14.1382 194.03 14.955L191.36 17.655C190.368 16.6491 189.018 16.0774 187.605 16.065C187.073 16.0554 186.546 16.1664 186.062 16.3899C185.579 16.6133 185.153 16.9432 184.815 17.355C184.069 18.232 183.674 19.354 183.705 20.505C183.668 21.6655 184.07 22.7974 184.83 23.6749C185.198 24.0935 185.653 24.4251 186.164 24.6456C186.675 24.8661 187.229 24.9701 187.785 24.95C189.045 24.95 190.285 24.38 191.48 23.24L194.15 25.94C193.353 26.8366 192.397 27.5789 191.33 28.13C190.158 28.6657 188.879 28.9241 187.59 28.885Z" fill="black"/>
<path d="M197.133 28.5252V6.61523H201.693V14.7202C203.026 13.0002 204.598 12.1403 206.408 12.1403C207.15 12.1007 207.892 12.2224 208.582 12.4968C209.273 12.7713 209.895 13.1921 210.408 13.7303C211.368 14.7903 211.848 16.2503 211.848 18.1103V28.5252H207.288V19.5502C207.347 18.6801 207.092 17.8176 206.568 17.1202C206.313 16.8358 205.997 16.6126 205.644 16.4672C205.291 16.3218 204.909 16.2579 204.528 16.2802C204.14 16.2609 203.753 16.3261 203.393 16.4711C203.033 16.6161 202.709 16.8376 202.443 17.1202C201.887 17.803 201.611 18.6718 201.673 19.5502V28.5252H197.133Z" fill="black"/>
</svg>
