<svg width="60" height="60" viewBox="0 0 60 60" fill="none" xmlns="http://www.w3.org/2000/svg">
<g clip-path="url(#clip0_33012_60)">
<mask id="path-1-inside-1_33012_60" fill="white">
<path d="M57.5414 6.88525H58.525C59.0679 6.88525 59.5086 6.44557 59.5086 5.90164V1.96721C59.5086 1.42328 59.0679 0.983607 58.525 0.983607H54.5905C54.0476 0.983607 53.6069 1.42328 53.6069 1.96721V2.95082H33.9348V0.983607C33.9348 0.439672 33.4942 0 32.9512 0H27.0496C26.5066 0 26.066 0.439672 26.066 0.983607V2.95082H6.39383V1.96721C6.39383 1.42328 5.95317 0.983607 5.41022 0.983607H1.47579C0.932843 0.983607 0.492188 1.42328 0.492188 1.96721V5.90164C0.492188 6.44557 0.932843 6.88525 1.47579 6.88525H2.4594V53.1148H1.47579C0.932843 53.1148 0.492188 53.5544 0.492188 54.0984V58.0328C0.492188 58.5767 0.932843 59.0164 1.47579 59.0164H5.41022C5.95317 59.0164 6.39383 58.5767 6.39383 58.0328V57.0492H26.066V59.0164C26.066 59.5603 26.5066 60 27.0496 60H32.9512C33.4942 60 33.9348 59.5603 33.9348 59.0164V57.0492H53.6069V58.0328C53.6069 58.5767 54.0476 59.0164 54.5905 59.0164H58.525C59.0679 59.0164 59.5086 58.5767 59.5086 58.0328V54.0984C59.5086 53.5544 59.0679 53.1148 58.525 53.1148H57.5414V30V6.88525ZM55.5742 2.95082H57.5414V4.91803H55.5742V2.95082ZM28.0332 1.96721H31.9676V4.10164V5.90164H28.0332V4.10164V3.93443V1.96721ZM2.4594 2.95082H4.42661V4.91803H2.4594V2.95082ZM4.42661 6.88525H5.41022C5.95317 6.88525 6.39383 6.44557 6.39383 5.90164V4.91803H19.6676C12.6869 7.67705 7.19251 13.139 4.42661 19.9377V6.88525ZM4.42661 57.0492H2.4594V55.082H4.42661V57.0492ZM5.41022 53.1148H4.42661V40.0623C7.19251 46.861 12.6869 52.3229 19.6676 55.082H6.39383V54.0984C6.39383 53.5544 5.95317 53.1148 5.41022 53.1148ZM24.3446 23.4925L27.8276 33.0118C26.5794 33.9266 26.0158 35.579 26.5745 37.1026C26.901 37.9967 27.5571 38.7108 28.4217 39.1121C28.8997 39.3344 29.4092 39.4456 29.9207 39.4456C30.3348 39.4456 30.7489 39.3728 31.1483 39.2262C32.0433 38.8987 32.7564 38.2426 33.1578 37.379C33.5591 36.5144 33.6004 35.5466 33.2728 34.6525C32.7161 33.1288 31.2201 32.2298 29.6758 32.3361L26.1909 22.8118L39.7341 33.5744C38.1348 35.7688 37.6912 38.399 38.5587 40.7843L39.6987 43.9033L27.7971 48.2567L26.6551 45.1338C25.7738 42.7269 23.6787 41.0184 20.9453 40.4243L24.3446 23.4925ZM31.4256 35.3282C31.5722 35.7285 31.5535 36.1633 31.3735 36.5498C31.1935 36.9374 30.8738 37.2315 30.4715 37.379C30.0712 37.5246 29.6355 37.5079 29.2499 37.3269C28.8623 37.1469 28.5683 36.8272 28.4217 36.4259C28.1187 35.5977 28.5456 34.678 29.3738 34.3751C29.5548 34.3092 29.7397 34.2767 29.9217 34.2767C30.5738 34.2777 31.1876 34.681 31.4256 35.3282ZM28.4728 50.1059L40.3745 45.7515L42.5905 51.8125C42.5355 51.8429 42.4814 51.8754 42.4263 51.9049C41.8528 52.2197 41.2715 52.5118 40.6804 52.7803C40.6046 52.8148 40.5289 52.8482 40.4522 52.8816C40.4128 52.8984 40.3735 52.9151 40.3351 52.9318C39.7401 53.1915 39.1371 53.4305 38.5243 53.6439C38.5184 53.6459 38.5115 53.6488 38.5056 53.6508C38.4112 53.6843 38.3148 53.7138 38.2194 53.7462C37.6214 53.9459 37.0164 54.122 36.4037 54.2764C36.2728 54.3098 36.143 54.3423 36.0122 54.3728C35.3591 54.5262 34.6991 54.658 34.0312 54.7603C33.9987 54.7652 33.9663 54.7682 33.9338 54.7731V53.1148C33.9338 52.5708 33.4932 52.1311 32.9502 52.1311H29.2135L28.4728 50.1059ZM31.9676 58.0328H28.0332V55.8984V54.0984H28.525H31.9676V55.8984V56.0656V58.0328ZM57.5414 57.0492H55.5742V56.0656V55.082H56.5578H57.5414V57.0492ZM55.5742 40.1046V53.1148H54.5905C54.0476 53.1148 53.6069 53.5544 53.6069 54.0984V55.082H40.3184C40.3361 55.0751 40.3528 55.0662 40.3705 55.0584C40.9597 54.8223 41.5391 54.5587 42.1125 54.2803C42.263 54.2075 42.4115 54.1338 42.561 54.058C43.1502 53.759 43.7345 53.4452 44.3069 53.102C44.3079 53.101 44.3089 53.1 44.3099 53.1C44.902 52.7469 45.4715 52.3702 46.0292 51.9797C46.2073 51.8557 46.3774 51.7249 46.5515 51.597C46.9332 51.3167 47.3069 51.0305 47.6709 50.7334C47.8548 50.5829 48.0368 50.4315 48.2168 50.2771C48.5758 49.9692 48.922 49.6515 49.2623 49.3269C49.4109 49.1852 49.5633 49.0466 49.7089 48.902C50.1781 48.4328 50.6335 47.9528 51.0643 47.4541C51.1056 47.4069 51.142 47.3557 51.1823 47.3075C51.5709 46.8511 51.9427 46.3829 52.2987 45.9039C52.4256 45.7328 52.5446 45.5577 52.6676 45.3846C52.9312 45.0118 53.186 44.6341 53.4289 44.2485C53.5509 44.0557 53.6709 43.8629 53.7869 43.6682C54.0289 43.262 54.2581 42.8498 54.4774 42.4318C54.566 42.2646 54.6594 42.0993 54.744 41.9302C55.0361 41.3439 55.3105 40.7489 55.5594 40.142C55.5623 40.1292 55.5692 40.1174 55.5742 40.1046ZM44.304 50.7698L40.4069 40.1095C39.6732 38.0931 40.2004 35.8987 41.8528 34.0859C42.0368 33.8843 42.1282 33.6157 42.1056 33.3443C42.084 33.0728 41.9502 32.8229 41.7368 32.6528L24.922 19.2905C24.7637 18.6944 24.445 17.04 25.3873 15.841C26.4604 14.4767 28.9528 13.978 32.5922 14.3872C36.2443 14.8062 38.7791 14.2475 40.1335 12.7407C41.1978 11.5584 41.2223 10.077 41.0699 9.38754L39.1499 9.81443C39.1519 9.82328 39.3132 10.7125 38.6719 11.4266C37.7915 12.4033 35.7102 12.7584 32.8145 12.4338C28.3961 11.9292 25.3794 12.6708 23.841 14.6262C22.2869 16.6023 22.8171 19.0997 23.0542 19.9269L18.8158 41.04C18.7617 41.3115 18.8237 41.5928 18.9869 41.8161C19.1512 42.0393 19.4001 42.1829 19.6755 42.2115C22.1974 42.48 24.0683 43.7921 24.8079 45.8125L27.1184 52.1311H27.0496C26.5066 52.1311 26.066 52.5708 26.066 53.1148V54.779C13.6538 52.9131 4.42661 42.4446 4.42661 30C4.42661 17.5554 13.6538 7.08688 26.066 5.22098V6.88525C26.066 7.42918 26.5066 7.86885 27.0496 7.86885H32.9512C33.4942 7.86885 33.9348 7.42918 33.9348 6.88525V5.22098C46.3469 7.08688 55.5742 17.5554 55.5742 30C55.5742 38.4285 51.3801 46.1016 44.304 50.7698ZM40.3332 4.91803H53.6069V5.90164C53.6069 6.44557 54.0476 6.88525 54.5905 6.88525H55.5742V19.9377C52.8082 13.139 47.3138 7.67705 40.3332 4.91803Z"/>
</mask>
<path d="M57.5414 6.88525H58.525C59.0679 6.88525 59.5086 6.44557 59.5086 5.90164V1.96721C59.5086 1.42328 59.0679 0.983607 58.525 0.983607H54.5905C54.0476 0.983607 53.6069 1.42328 53.6069 1.96721V2.95082H33.9348V0.983607C33.9348 0.439672 33.4942 0 32.9512 0H27.0496C26.5066 0 26.066 0.439672 26.066 0.983607V2.95082H6.39383V1.96721C6.39383 1.42328 5.95317 0.983607 5.41022 0.983607H1.47579C0.932843 0.983607 0.492188 1.42328 0.492188 1.96721V5.90164C0.492188 6.44557 0.932843 6.88525 1.47579 6.88525H2.4594V53.1148H1.47579C0.932843 53.1148 0.492188 53.5544 0.492188 54.0984V58.0328C0.492188 58.5767 0.932843 59.0164 1.47579 59.0164H5.41022C5.95317 59.0164 6.39383 58.5767 6.39383 58.0328V57.0492H26.066V59.0164C26.066 59.5603 26.5066 60 27.0496 60H32.9512C33.4942 60 33.9348 59.5603 33.9348 59.0164V57.0492H53.6069V58.0328C53.6069 58.5767 54.0476 59.0164 54.5905 59.0164H58.525C59.0679 59.0164 59.5086 58.5767 59.5086 58.0328V54.0984C59.5086 53.5544 59.0679 53.1148 58.525 53.1148H57.5414V30V6.88525ZM55.5742 2.95082H57.5414V4.91803H55.5742V2.95082ZM28.0332 1.96721H31.9676V4.10164V5.90164H28.0332V4.10164V3.93443V1.96721ZM2.4594 2.95082H4.42661V4.91803H2.4594V2.95082ZM4.42661 6.88525H5.41022C5.95317 6.88525 6.39383 6.44557 6.39383 5.90164V4.91803H19.6676C12.6869 7.67705 7.19251 13.139 4.42661 19.9377V6.88525ZM4.42661 57.0492H2.4594V55.082H4.42661V57.0492ZM5.41022 53.1148H4.42661V40.0623C7.19251 46.861 12.6869 52.3229 19.6676 55.082H6.39383V54.0984C6.39383 53.5544 5.95317 53.1148 5.41022 53.1148ZM24.3446 23.4925L27.8276 33.0118C26.5794 33.9266 26.0158 35.579 26.5745 37.1026C26.901 37.9967 27.5571 38.7108 28.4217 39.1121C28.8997 39.3344 29.4092 39.4456 29.9207 39.4456C30.3348 39.4456 30.7489 39.3728 31.1483 39.2262C32.0433 38.8987 32.7564 38.2426 33.1578 37.379C33.5591 36.5144 33.6004 35.5466 33.2728 34.6525C32.7161 33.1288 31.2201 32.2298 29.6758 32.3361L26.1909 22.8118L39.7341 33.5744C38.1348 35.7688 37.6912 38.399 38.5587 40.7843L39.6987 43.9033L27.7971 48.2567L26.6551 45.1338C25.7738 42.7269 23.6787 41.0184 20.9453 40.4243L24.3446 23.4925ZM31.4256 35.3282C31.5722 35.7285 31.5535 36.1633 31.3735 36.5498C31.1935 36.9374 30.8738 37.2315 30.4715 37.379C30.0712 37.5246 29.6355 37.5079 29.2499 37.3269C28.8623 37.1469 28.5683 36.8272 28.4217 36.4259C28.1187 35.5977 28.5456 34.678 29.3738 34.3751C29.5548 34.3092 29.7397 34.2767 29.9217 34.2767C30.5738 34.2777 31.1876 34.681 31.4256 35.3282ZM28.4728 50.1059L40.3745 45.7515L42.5905 51.8125C42.5355 51.8429 42.4814 51.8754 42.4263 51.9049C41.8528 52.2197 41.2715 52.5118 40.6804 52.7803C40.6046 52.8148 40.5289 52.8482 40.4522 52.8816C40.4128 52.8984 40.3735 52.9151 40.3351 52.9318C39.7401 53.1915 39.1371 53.4305 38.5243 53.6439C38.5184 53.6459 38.5115 53.6488 38.5056 53.6508C38.4112 53.6843 38.3148 53.7138 38.2194 53.7462C37.6214 53.9459 37.0164 54.122 36.4037 54.2764C36.2728 54.3098 36.143 54.3423 36.0122 54.3728C35.3591 54.5262 34.6991 54.658 34.0312 54.7603C33.9987 54.7652 33.9663 54.7682 33.9338 54.7731V53.1148C33.9338 52.5708 33.4932 52.1311 32.9502 52.1311H29.2135L28.4728 50.1059ZM31.9676 58.0328H28.0332V55.8984V54.0984H28.525H31.9676V55.8984V56.0656V58.0328ZM57.5414 57.0492H55.5742V56.0656V55.082H56.5578H57.5414V57.0492ZM55.5742 40.1046V53.1148H54.5905C54.0476 53.1148 53.6069 53.5544 53.6069 54.0984V55.082H40.3184C40.3361 55.0751 40.3528 55.0662 40.3705 55.0584C40.9597 54.8223 41.5391 54.5587 42.1125 54.2803C42.263 54.2075 42.4115 54.1338 42.561 54.058C43.1502 53.759 43.7345 53.4452 44.3069 53.102C44.3079 53.101 44.3089 53.1 44.3099 53.1C44.902 52.7469 45.4715 52.3702 46.0292 51.9797C46.2073 51.8557 46.3774 51.7249 46.5515 51.597C46.9332 51.3167 47.3069 51.0305 47.6709 50.7334C47.8548 50.5829 48.0368 50.4315 48.2168 50.2771C48.5758 49.9692 48.922 49.6515 49.2623 49.3269C49.4109 49.1852 49.5633 49.0466 49.7089 48.902C50.1781 48.4328 50.6335 47.9528 51.0643 47.4541C51.1056 47.4069 51.142 47.3557 51.1823 47.3075C51.5709 46.8511 51.9427 46.3829 52.2987 45.9039C52.4256 45.7328 52.5446 45.5577 52.6676 45.3846C52.9312 45.0118 53.186 44.6341 53.4289 44.2485C53.5509 44.0557 53.6709 43.8629 53.7869 43.6682C54.0289 43.262 54.2581 42.8498 54.4774 42.4318C54.566 42.2646 54.6594 42.0993 54.744 41.9302C55.0361 41.3439 55.3105 40.7489 55.5594 40.142C55.5623 40.1292 55.5692 40.1174 55.5742 40.1046ZM44.304 50.7698L40.4069 40.1095C39.6732 38.0931 40.2004 35.8987 41.8528 34.0859C42.0368 33.8843 42.1282 33.6157 42.1056 33.3443C42.084 33.0728 41.9502 32.8229 41.7368 32.6528L24.922 19.2905C24.7637 18.6944 24.445 17.04 25.3873 15.841C26.4604 14.4767 28.9528 13.978 32.5922 14.3872C36.2443 14.8062 38.7791 14.2475 40.1335 12.7407C41.1978 11.5584 41.2223 10.077 41.0699 9.38754L39.1499 9.81443C39.1519 9.82328 39.3132 10.7125 38.6719 11.4266C37.7915 12.4033 35.7102 12.7584 32.8145 12.4338C28.3961 11.9292 25.3794 12.6708 23.841 14.6262C22.2869 16.6023 22.8171 19.0997 23.0542 19.9269L18.8158 41.04C18.7617 41.3115 18.8237 41.5928 18.9869 41.8161C19.1512 42.0393 19.4001 42.1829 19.6755 42.2115C22.1974 42.48 24.0683 43.7921 24.8079 45.8125L27.1184 52.1311H27.0496C26.5066 52.1311 26.066 52.5708 26.066 53.1148V54.779C13.6538 52.9131 4.42661 42.4446 4.42661 30C4.42661 17.5554 13.6538 7.08688 26.066 5.22098V6.88525C26.066 7.42918 26.5066 7.86885 27.0496 7.86885H32.9512C33.4942 7.86885 33.9348 7.42918 33.9348 6.88525V5.22098C46.3469 7.08688 55.5742 17.5554 55.5742 30C55.5742 38.4285 51.3801 46.1016 44.304 50.7698ZM40.3332 4.91803H53.6069V5.90164C53.6069 6.44557 54.0476 6.88525 54.5905 6.88525H55.5742V19.9377C52.8082 13.139 47.3138 7.67705 40.3332 4.91803Z" stroke="#274680" stroke-width="6" mask="url(#path-1-inside-1_33012_60)"/>
</g>
<defs>
<clipPath id="clip0_33012_60">
<rect width="60" height="60" fill="white"/>
</clipPath>
</defs>
</svg>
