<?xml version="1.0" encoding="UTF-8"?>
<svg xmlns="http://www.w3.org/2000/svg" xmlns:xlink="http://www.w3.org/1999/xlink" width="60px" height="60px" viewBox="0 0 60 60" version="1.1">
<defs>
<clipPath id="clip1">
  <path d="M 16 29 L 25 29 L 25 43 L 16 43 Z M 16 29 "/>
</clipPath>
<clipPath id="clip2">
  <path d="M 23.671875 42.046875 C 23.445312 42.046875 23.21875 41.96875 23.03125 41.808594 L 16.621094 36.351562 C 16.402344 36.164062 16.273438 35.886719 16.273438 35.597656 C 16.273438 35.308594 16.402344 35.03125 16.621094 34.84375 L 23.03125 29.386719 C 23.449219 29.03125 24.074219 29.082031 24.429688 29.496094 C 24.78125 29.914062 24.734375 30.539062 24.316406 30.894531 L 18.792969 35.597656 L 24.316406 40.300781 C 24.734375 40.65625 24.78125 41.28125 24.429688 41.699219 C 24.230469 41.929688 23.953125 42.046875 23.671875 42.046875 Z M 23.671875 42.046875 "/>
</clipPath>
</defs>
<g id="surface1">
<g clip-path="url(#clip1)" clip-rule="nonzero">
<g clip-path="url(#clip2)" clip-rule="evenodd">
<path style=" stroke:none;fill-rule:nonzero;fill:rgb(15.294118%,27.45098%,50.196078%);fill-opacity:1;" d="M 23.03125 41.808594 L 24.976562 39.527344 Z M 16.621094 36.351562 L 14.675781 38.632812 L 14.675781 38.636719 Z M 16.621094 34.84375 L 14.675781 32.558594 L 14.671875 32.5625 Z M 23.03125 29.386719 L 24.976562 31.667969 Z M 24.429688 29.496094 L 26.714844 27.554688 L 26.710938 27.550781 Z M 24.316406 30.894531 L 22.371094 28.605469 L 22.371094 28.609375 Z M 18.792969 35.597656 L 16.847656 33.3125 L 14.164062 35.597656 L 16.847656 37.882812 Z M 24.316406 40.300781 L 22.371094 42.585938 Z M 24.429688 41.699219 L 26.710938 43.640625 Z M 23.671875 39.046875 C 24.136719 39.046875 24.601562 39.207031 24.976562 39.527344 L 21.085938 44.09375 C 21.832031 44.730469 22.757812 45.046875 23.671875 45.046875 Z M 24.976562 39.527344 L 18.566406 34.066406 L 14.675781 38.636719 L 21.085938 44.09375 Z M 18.566406 34.070312 C 19.015625 34.449219 19.273438 35.007812 19.273438 35.597656 L 13.273438 35.597656 C 13.273438 36.765625 13.785156 37.875 14.675781 38.632812 Z M 19.273438 35.597656 C 19.273438 36.191406 19.011719 36.746094 18.570312 37.125 L 14.671875 32.5625 C 13.789062 33.316406 13.273438 34.421875 13.273438 35.597656 Z M 18.566406 37.128906 L 24.976562 31.667969 L 21.085938 27.101562 L 14.675781 32.558594 Z M 24.976562 31.667969 C 24.132812 32.390625 22.863281 32.285156 22.144531 31.441406 L 26.710938 27.550781 C 25.28125 25.875 22.765625 25.671875 21.085938 27.101562 Z M 22.140625 31.441406 C 21.425781 30.597656 21.523438 29.328125 22.371094 28.605469 L 26.257812 33.179688 C 27.941406 31.746094 28.136719 29.230469 26.714844 27.554688 Z M 22.371094 28.609375 L 16.847656 33.3125 L 20.738281 37.882812 L 26.261719 33.175781 Z M 16.847656 37.882812 L 22.371094 42.585938 L 26.261719 38.015625 L 20.738281 33.3125 Z M 22.371094 42.585938 C 21.527344 41.867188 21.425781 40.597656 22.144531 39.753906 L 26.710938 43.640625 C 28.140625 41.964844 27.941406 39.445312 26.261719 38.015625 Z M 22.144531 39.753906 C 22.539062 39.285156 23.109375 39.046875 23.671875 39.046875 L 23.671875 45.046875 C 24.796875 45.046875 25.921875 44.570312 26.710938 43.640625 Z M 22.144531 39.753906 "/>
</g>
</g>
<path style=" stroke:none;fill-rule:nonzero;fill:rgb(0%,35.294118%,67.058824%);fill-opacity:1;" d="M 36.328125 42.046875 C 36.046875 42.046875 35.769531 41.929688 35.574219 41.699219 C 35.21875 41.28125 35.269531 40.65625 35.683594 40.300781 L 41.207031 35.597656 L 35.683594 30.894531 C 35.269531 30.539062 35.21875 29.914062 35.574219 29.496094 C 35.925781 29.082031 36.550781 29.03125 36.96875 29.386719 L 43.378906 34.84375 C 43.597656 35.03125 43.726562 35.308594 43.726562 35.597656 C 43.726562 35.886719 43.597656 36.164062 43.378906 36.351562 L 36.96875 41.808594 C 36.78125 41.96875 36.554688 42.046875 36.328125 42.046875 Z M 36.328125 42.046875 "/>
<path style=" stroke:none;fill-rule:nonzero;fill:rgb(0%,35.294118%,67.058824%);fill-opacity:1;" d="M 27.730469 46.140625 C 27.664062 46.140625 27.59375 46.132812 27.523438 46.117188 C 26.988281 46.007812 26.648438 45.480469 26.757812 44.945312 L 30.753906 25.976562 C 30.867188 25.441406 31.390625 25.101562 31.929688 25.210938 C 32.464844 25.324219 32.804688 25.851562 32.691406 26.386719 L 28.699219 45.355469 C 28.601562 45.820312 28.1875 46.140625 27.730469 46.140625 Z M 27.730469 46.140625 "/>
<path style=" stroke:none;fill-rule:nonzero;fill:rgb(0%,35.294118%,67.058824%);fill-opacity:1;" d="M 53.347656 56.472656 L 6.652344 56.472656 C 2.984375 56.472656 0 53.492188 0 49.824219 L 0 10.1875 C 0 6.519531 2.984375 3.539062 6.652344 3.539062 L 53.347656 3.539062 C 57.015625 3.539062 60 6.519531 60 10.1875 L 60 49.824219 C 60 53.492188 57.015625 56.472656 53.347656 56.472656 Z M 6.652344 5.519531 C 4.074219 5.519531 1.980469 7.613281 1.980469 10.1875 L 1.980469 49.824219 C 1.980469 52.398438 4.074219 54.492188 6.652344 54.492188 L 53.347656 54.492188 C 55.925781 54.492188 58.019531 52.398438 58.019531 49.824219 L 58.019531 10.1875 C 58.019531 7.613281 55.925781 5.519531 53.347656 5.519531 Z M 6.652344 5.519531 "/>
<path style=" stroke:none;fill-rule:nonzero;fill:rgb(0%,35.294118%,67.058824%);fill-opacity:1;" d="M 59.007812 19.398438 L 0.992188 19.398438 C 0.441406 19.398438 0 18.957031 0 18.410156 C 0 17.863281 0.441406 17.417969 0.992188 17.417969 L 59.007812 17.417969 C 59.558594 17.417969 60 17.863281 60 18.410156 C 60 18.957031 59.558594 19.398438 59.007812 19.398438 Z M 59.007812 19.398438 "/>
<path style=" stroke:none;fill-rule:nonzero;fill:rgb(0%,35.294118%,67.058824%);fill-opacity:1;" d="M 16.921875 14.660156 C 15.195312 14.660156 13.789062 13.253906 13.789062 11.527344 C 13.789062 9.796875 15.195312 8.390625 16.921875 8.390625 C 18.652344 8.390625 20.058594 9.796875 20.058594 11.527344 C 20.058594 13.253906 18.652344 14.660156 16.921875 14.660156 Z M 16.921875 10.371094 C 16.289062 10.371094 15.769531 10.890625 15.769531 11.527344 C 15.769531 12.160156 16.289062 12.679688 16.921875 12.679688 C 17.558594 12.679688 18.078125 12.160156 18.078125 11.527344 C 18.078125 10.890625 17.558594 10.371094 16.921875 10.371094 Z M 16.921875 10.371094 "/>
<path style=" stroke:none;fill-rule:nonzero;fill:rgb(0%,35.294118%,67.058824%);fill-opacity:1;" d="M 7.292969 14.628906 C 5.566406 14.628906 4.160156 13.222656 4.160156 11.496094 C 4.160156 9.765625 5.566406 8.359375 7.292969 8.359375 C 9.023438 8.359375 10.429688 9.765625 10.429688 11.496094 C 10.429688 13.222656 9.023438 14.628906 7.292969 14.628906 Z M 7.292969 10.339844 C 6.660156 10.339844 6.140625 10.859375 6.140625 11.496094 C 6.140625 12.128906 6.660156 12.648438 7.292969 12.648438 C 7.929688 12.648438 8.449219 12.128906 8.449219 11.496094 C 8.449219 10.859375 7.929688 10.339844 7.292969 10.339844 Z M 7.292969 10.339844 "/>
<path style=" stroke:none;fill-rule:nonzero;fill:rgb(0%,35.294118%,67.058824%);fill-opacity:1;" d="M 26.554688 14.6875 C 24.828125 14.6875 23.421875 13.28125 23.421875 11.554688 C 23.421875 9.828125 24.828125 8.421875 26.554688 8.421875 C 28.285156 8.421875 29.691406 9.828125 29.691406 11.554688 C 29.691406 13.28125 28.285156 14.6875 26.554688 14.6875 Z M 26.554688 10.402344 C 25.921875 10.402344 25.402344 10.917969 25.402344 11.554688 C 25.402344 12.191406 25.921875 12.707031 26.554688 12.707031 C 27.191406 12.707031 27.710938 12.191406 27.710938 11.554688 C 27.710938 10.917969 27.191406 10.402344 26.554688 10.402344 Z M 26.554688 10.402344 "/>
</g>
</svg>
