<svg width="151" height="46" viewBox="0 0 151 46" fill="none" xmlns="http://www.w3.org/2000/svg">
<path d="M35.4514 16.9381C35.477 19.1867 33.6888 20.9651 32.0205 21.1359C30.9106 21.2494 29.7739 21.3254 28.7118 21.6366C27.2428 22.0671 25.8934 22.7948 24.8375 23.9953C23.6139 25.3875 22.9295 26.9249 22.8098 28.8599C22.6924 30.7657 22.0471 32.6318 19.9802 33.3163C16.8086 34.368 13.2603 32.8541 13.3007 29.0272C13.3178 27.4467 14.4191 25.7631 16.178 25.1008C17.1214 24.7452 18.0258 24.7897 18.9523 24.6574C21.7292 24.2632 23.9232 22.9247 25.2725 20.3473C25.919 19.113 26.2895 17.8003 26.232 16.3765C26.1794 15.065 25.6074 13.5335 24.8435 12.5168C23.5541 10.8005 22.2646 9.84584 20.3151 9.29244C18.6822 8.82798 16.9784 8.85839 15.2709 9.42348C13.825 9.90199 12.7458 10.7759 11.7302 11.8324C10.6521 12.9556 10.0752 14.2952 9.986 15.8594C9.90045 17.3604 9.557 18.8042 8.49487 19.8875C7.40709 20.9978 6.08095 21.4131 4.46638 21.1966C3.04247 21.006 2.06224 20.3625 1.22012 19.2534C-0.0448894 17.5875 0.112779 15.2534 1.67601 13.8202C2.76625 12.8199 3.94326 12.3998 5.52607 12.2641C8.54375 12.0044 12.1909 9.78032 12.8913 6.65304C13.044 5.96861 13.2078 5.27483 13.253 4.5787C13.3765 2.64946 14.5022 0.848899 16.4687 0.277962C19.4241 -0.579612 21.6827 0.552901 22.542 3.59594C22.6875 4.11189 22.8159 4.6454 22.8549 5.17889C23.0431 7.78906 24.3118 9.65747 26.4923 10.9877C27.8906 11.8406 29.3535 12.1296 30.9852 12.2969C33.1547 12.518 35.3547 14.1559 35.4514 16.9381Z" fill="#0066B3"/>
<path d="M0.382812 28.8792C0.382812 26.6306 2.19172 24.8709 3.86252 24.7176C4.97354 24.6159 6.11143 24.5528 7.17722 24.2521C8.65124 23.8367 10.0091 23.1241 11.0786 21.9343C12.3179 20.5561 13.0207 19.0259 13.1625 17.0919C13.3018 15.1872 13.9692 13.3282 16.0432 12.666C19.2273 11.6481 22.7583 13.2006 22.6728 17.0264C22.6373 18.6069 21.5164 20.2789 19.7504 20.9223C18.8031 21.2674 17.8986 21.2136 16.971 21.3354C14.1892 21.7003 11.9794 23.0154 10.6007 25.5776C9.93947 26.8049 9.55448 28.1128 9.5948 29.5379C9.63269 30.8494 10.157 31.983 10.7522 33.0968C11.7753 35.0133 13.4851 36.1095 15.4285 36.6851C17.0565 37.1672 18.7604 37.1543 20.474 36.6078C21.926 36.1446 23.015 35.2835 24.0429 34.2364C25.1342 33.1249 25.7271 31.7924 25.8335 30.2281C25.9361 28.7282 26.2967 27.2891 27.371 26.2164C28.4722 25.1178 29.8021 24.7165 31.4153 24.9505C32.8368 25.1564 33.8098 25.8104 34.6384 26.9288C35.884 28.6078 35.6982 30.9406 34.119 32.3562C33.0165 33.3449 31.8359 33.752 30.2506 33.8713C27.2304 34.0984 23.5576 36.2838 22.8207 39.4029C22.6593 40.0862 22.4882 40.7776 22.4356 41.4737C22.2891 43.4019 21.1438 45.1907 19.1698 45.7405C16.2046 46.5665 13.9594 45.4095 13.1356 42.3581C12.9963 41.8411 12.874 41.3052 12.8411 40.7717C12.6822 38.1605 11.4367 36.278 9.27213 34.9244C7.88368 34.0562 6.42432 33.752 4.79387 33.5672C2.62684 33.3239 0.446369 31.6625 0.382812 28.8792Z" fill="#0066B3"/>
<path d="M63.6442 25.5659V29.5937H44.957V26.3898L56.6824 12.2621H45.2013V8.23438H63.1862V11.4383L51.4915 25.5659H63.6442ZM80.8932 25.0167H70.9694L69.0763 29.5937H64.0076L73.5344 8.23438H78.4199L87.9772 29.5937H82.7863L80.8932 25.0167ZM79.3359 21.2636L75.9465 13.086L72.5572 21.2636H79.3359ZM99.4467 8.23438C101.339 8.23438 102.979 8.54967 104.363 9.18028C105.768 9.81089 106.846 10.706 107.6 11.8655C108.352 13.025 108.73 14.3981 108.73 15.9848C108.73 17.5511 108.352 18.9242 107.6 20.1041C106.846 21.2636 105.768 22.1586 104.363 22.7892C102.979 23.3995 101.339 23.7046 99.4467 23.7046H95.1413V29.5937H90.1946V8.23438H99.4467ZM99.1719 19.6769C100.658 19.6769 101.788 19.3616 102.561 18.731C103.335 18.0801 103.721 17.1647 103.721 15.9848C103.721 14.7846 103.335 13.8692 102.561 13.2386C101.788 12.5876 100.658 12.2621 99.1719 12.2621H95.1413V19.6769H99.1719ZM116.092 12.2621H109.252V8.23438H127.878V12.2621H121.038V29.5937H116.092V12.2621ZM143.543 25.0167H133.619L131.726 29.5937H126.657L136.184 8.23438H141.069L150.627 29.5937H145.436L143.543 25.0167ZM141.986 21.2636L138.596 13.086L135.207 21.2636H141.986Z" fill="#0066B3"/>
<path d="M45.9669 35.0798H43.8359V33.825H49.6391V35.0798H47.5081V40.4796H45.9669V35.0798ZM58.0979 39.2437V40.4796H52.9418V33.825H57.9743V35.0608H54.4733V36.5058H57.5652V37.7037H54.4733V39.2437H58.0979ZM64.966 40.5937C64.2873 40.5937 63.6722 40.4479 63.1204 40.1564C62.575 39.8585 62.1437 39.4497 61.8266 38.93C61.5158 38.4039 61.3605 37.8115 61.3605 37.1523C61.3605 36.4931 61.5158 35.9037 61.8266 35.384C62.1437 34.858 62.575 34.4492 63.1204 34.1577C63.6722 33.8598 64.2905 33.7109 64.9755 33.7109C65.5526 33.7109 66.0726 33.8122 66.5357 34.0151C67.0049 34.218 67.3982 34.5094 67.7153 34.8897L66.7259 35.8023C66.2756 35.2827 65.7175 35.0228 65.0517 35.0228C64.6394 35.0228 64.2715 35.1146 63.9481 35.2985C63.6247 35.4759 63.3709 35.7263 63.1871 36.0495C63.0094 36.3727 62.9207 36.7403 62.9207 37.1523C62.9207 37.5643 63.0094 37.9318 63.1871 38.2551C63.3709 38.5783 63.6247 38.8317 63.9481 39.0156C64.2715 39.193 64.6394 39.2818 65.0517 39.2818C65.7175 39.2818 66.2756 39.0188 66.7259 38.4927L67.7153 39.4054C67.3982 39.7919 67.0049 40.0866 66.5357 40.2895C66.0664 40.4923 65.5431 40.5937 64.966 40.5937ZM77.3369 33.825V40.4796H75.7958V37.7512H72.7705V40.4796H71.2295V33.825H72.7705V36.4488H75.7958V33.825H77.3369ZM87.4936 33.825V40.4796H86.2283L82.9082 36.4393V40.4796H81.386V33.825H82.6608L85.9715 37.8653V33.825H87.4936ZM94.7675 40.5937C94.0763 40.5937 93.4515 40.4448 92.8934 40.1469C92.3416 39.8489 91.9073 39.4402 91.5901 38.9205C91.2794 38.3944 91.124 37.805 91.124 37.1523C91.124 36.4995 91.2794 35.9132 91.5901 35.3936C91.9073 34.8675 92.3416 34.4556 92.8934 34.1577C93.4515 33.8598 94.0763 33.7109 94.7675 33.7109C95.4588 33.7109 96.0804 33.8598 96.6321 34.1577C97.1839 34.4556 97.6183 34.8675 97.9355 35.3936C98.2526 35.9132 98.4111 36.4995 98.4111 37.1523C98.4111 37.805 98.2526 38.3944 97.9355 38.9205C97.6183 39.4402 97.1839 39.8489 96.6321 40.1469C96.0804 40.4448 95.4588 40.5937 94.7675 40.5937ZM94.7675 39.2818C95.1608 39.2818 95.5158 39.193 95.833 39.0156C96.1502 38.8317 96.3975 38.5783 96.5751 38.2551C96.7591 37.9318 96.8509 37.5643 96.8509 37.1523C96.8509 36.7403 96.7591 36.3727 96.5751 36.0495C96.3975 35.7263 96.1502 35.4759 95.833 35.2985C95.5158 35.1146 95.1608 35.0228 94.7675 35.0228C94.3742 35.0228 94.0192 35.1146 93.7021 35.2985C93.3849 35.4759 93.1345 35.7263 92.9505 36.0495C92.773 36.3727 92.6842 36.7403 92.6842 37.1523C92.6842 37.5643 92.773 37.9318 92.9505 38.2551C93.1345 38.5783 93.3849 38.8317 93.7021 39.0156C94.0192 39.193 94.3742 39.2818 94.7675 39.2818ZM102.043 33.825H103.584V39.2247H106.923V40.4796H102.043V33.825ZM113.372 40.5937C112.68 40.5937 112.055 40.4448 111.497 40.1469C110.945 39.8489 110.511 39.4402 110.193 38.9205C109.883 38.3944 109.728 37.805 109.728 37.1523C109.728 36.4995 109.883 35.9132 110.193 35.3936C110.511 34.8675 110.945 34.4556 111.497 34.1577C112.055 33.8598 112.68 33.7109 113.372 33.7109C114.062 33.7109 114.684 33.8598 115.236 34.1577C115.787 34.4556 116.222 34.8675 116.539 35.3936C116.856 35.9132 117.015 36.4995 117.015 37.1523C117.015 37.805 116.856 38.3944 116.539 38.9205C116.222 39.4402 115.787 39.8489 115.236 40.1469C114.684 40.4448 114.062 40.5937 113.372 40.5937ZM113.372 39.2818C113.765 39.2818 114.119 39.193 114.436 39.0156C114.754 38.8317 115.001 38.5783 115.179 38.2551C115.363 37.9318 115.455 37.5643 115.455 37.1523C115.455 36.7403 115.363 36.3727 115.179 36.0495C115.001 35.7263 114.754 35.4759 114.436 35.2985C114.119 35.1146 113.765 35.0228 113.372 35.0228C112.978 35.0228 112.623 35.1146 112.306 35.2985C111.989 35.4759 111.738 35.7263 111.554 36.0495C111.376 36.3727 111.288 36.7403 111.288 37.1523C111.288 37.5643 111.376 37.9318 111.554 38.2551C111.738 38.5783 111.989 38.8317 112.306 39.0156C112.623 39.193 112.978 39.2818 113.372 39.2818ZM125.146 37.0477H126.554V39.7476C126.193 40.0201 125.774 40.2292 125.298 40.375C124.823 40.5209 124.344 40.5937 123.862 40.5937C123.17 40.5937 122.549 40.4479 121.998 40.1564C121.445 39.8585 121.011 39.4497 120.694 38.93C120.383 38.4039 120.227 37.8115 120.227 37.1523C120.227 36.4931 120.383 35.9037 120.694 35.384C121.011 34.858 121.448 34.4492 122.007 34.1577C122.565 33.8598 123.192 33.7109 123.89 33.7109C124.474 33.7109 125.004 33.8092 125.479 34.0056C125.954 34.202 126.355 34.4872 126.678 34.8612L125.688 35.7738C125.213 35.2732 124.638 35.0228 123.967 35.0228C123.542 35.0228 123.164 35.1116 122.834 35.289C122.505 35.4664 122.248 35.7168 122.064 36.04C121.881 36.3632 121.788 36.734 121.788 37.1523C121.788 37.5643 121.881 37.9318 122.064 38.2551C122.248 38.5783 122.502 38.8317 122.825 39.0156C123.154 39.193 123.529 39.2818 123.948 39.2818C124.391 39.2818 124.792 39.1867 125.146 38.9966V37.0477ZM130.459 33.825H132.001V40.4796H130.459V33.825ZM141.21 39.2437V40.4796H136.054V33.825H141.087V35.0608H137.585V36.5058H140.678V37.7037H137.585V39.2437H141.21ZM147.098 40.5937C146.572 40.5937 146.061 40.5239 145.567 40.3845C145.078 40.2387 144.685 40.0518 144.387 39.8236L144.911 38.6638C145.196 38.873 145.535 39.0409 145.928 39.1677C146.322 39.2945 146.715 39.3578 147.108 39.3578C147.545 39.3578 147.869 39.2945 148.078 39.1677C148.287 39.0346 148.392 38.8603 148.392 38.6448C148.392 38.4864 148.329 38.3564 148.202 38.2551C148.082 38.1473 147.923 38.0617 147.726 37.9984C147.535 37.935 147.276 37.8653 146.946 37.7892C146.439 37.6689 146.023 37.5483 145.7 37.428C145.376 37.3076 145.098 37.1143 144.862 36.8481C144.634 36.5819 144.52 36.2269 144.52 35.7833C144.52 35.3968 144.624 35.0481 144.834 34.7376C145.044 34.4207 145.357 34.1704 145.776 33.9866C146.2 33.8027 146.718 33.7109 147.326 33.7109C147.752 33.7109 148.167 33.7616 148.573 33.863C148.978 33.9643 149.334 34.1102 149.638 34.3003L149.162 35.4696C148.547 35.1211 147.932 34.9467 147.317 34.9467C146.886 34.9467 146.566 35.0165 146.357 35.1559C146.153 35.2953 146.051 35.4791 146.051 35.7073C146.051 35.9354 146.169 36.1066 146.404 36.2206C146.645 36.3284 147.009 36.4361 147.497 36.5439C148.005 36.6642 148.421 36.7847 148.744 36.9051C149.067 37.0255 149.344 37.2156 149.572 37.4755C149.806 37.7354 149.924 38.0872 149.924 38.5307C149.924 38.911 149.816 39.2595 149.6 39.5765C149.391 39.887 149.073 40.1341 148.649 40.318C148.224 40.5018 147.707 40.5937 147.098 40.5937Z" fill="#0066B3"/>
</svg>
