<svg width="115" height="52" viewBox="0 0 115 52" fill="none" xmlns="http://www.w3.org/2000/svg">
<path d="M2.12891 7.9375H50.7493" stroke="#F37021" stroke-width="2.62994" stroke-linecap="round"/>
<path d="M2.12891 44.0625H50.7493" stroke="#F37021" stroke-width="2.62994" stroke-linecap="round"/>
<path d="M44.7344 50V2" stroke="#F37021" stroke-width="2.62994" stroke-linecap="round"/>
<path d="M8.14453 50V2" stroke="#F37021" stroke-width="2.62994" stroke-linecap="round"/>
<path d="M64.31 27.208H75.618V28.3956H62.7461V27.2674L73.8435 8.7701H63.0469V7.55273H75.4074V8.71068L64.31 27.208ZM82.1098 8.68098V17.3803H90.5307V18.5086H82.1098V27.2674H91.433V28.3956H80.7565V7.55273H91.433V8.68098H82.1098ZM98.3865 8.68098V17.3803H106.807V18.5086H98.3865V27.2674H107.71V28.3956H97.0331V7.55273H107.71V8.68098H98.3865Z" fill="#F37021"/>
<path d="M64.3112 27.2067L63.8799 26.9545L63.4318 27.7015H64.3112V27.2067ZM75.6192 27.2067H76.1204V26.7119H75.6192V27.2067ZM75.6192 28.3944V28.8892H76.1204V28.3944H75.6192ZM62.7473 28.3944H62.2461V28.8892H62.7473V28.3944ZM62.7473 27.2661L62.316 27.014L62.2461 27.1305V27.2661H62.7473ZM73.8448 8.76886L74.2761 9.02103L74.7242 8.27402H73.8448V8.76886ZM63.0481 8.76886H62.5469V9.2637H63.0481V8.76886ZM63.0481 7.55149V7.05664H62.5469V7.55149H63.0481ZM75.4087 7.55149H75.9099V7.05664H75.4087V7.55149ZM75.4087 8.70944L75.84 8.96161L75.9099 8.84504V8.70944H75.4087ZM64.3112 27.7015H75.6192V26.7119H64.3112V27.7015ZM75.118 27.2067V28.3944H76.1204V27.2067H75.118ZM75.6192 27.8995H62.7473V28.8892H75.6192V27.8995ZM63.2486 28.3944V27.2661H62.2461V28.3944H63.2486ZM63.1786 27.5183L74.2761 9.02103L73.4136 8.51669L62.316 27.014L63.1786 27.5183ZM73.8448 8.27402H63.0481V9.2637H73.8448V8.27402ZM63.5494 8.76886V7.55149H62.5469V8.76886H63.5494ZM63.0481 8.04633H75.4087V7.05664H63.0481V8.04633ZM74.9074 7.55149V8.70944H75.9099V7.55149H74.9074ZM74.9775 8.45727L63.8799 26.9545L64.7425 27.4589L75.84 8.96161L74.9775 8.45727ZM82.1111 8.67973V8.18489H81.6098V8.67973H82.1111ZM82.1111 17.3791H81.6098V17.8739H82.1111V17.3791ZM90.5319 17.3791H91.0331V16.8843H90.5319V17.3791ZM90.5319 18.5073V19.0022H91.0331V18.5073H90.5319ZM82.1111 18.5073V18.0125H81.6098V18.5073H82.1111ZM82.1111 27.2661H81.6098V27.761H82.1111V27.2661ZM91.4342 27.2661H91.9355V26.7713H91.4342V27.2661ZM91.4342 28.3944V28.8892H91.9355V28.3944H91.4342ZM80.7577 28.3944H80.2565V28.8892H80.7577V28.3944ZM80.7577 7.55149V7.05664H80.2565V7.55149H80.7577ZM91.4342 7.55149H91.9355V7.05664H91.4342V7.55149ZM91.4342 8.67973V9.17457H91.9355V8.67973H91.4342ZM81.6098 8.67973V17.3791H82.6123V8.67973H81.6098ZM82.1111 17.8739H90.5319V16.8843H82.1111V17.8739ZM90.0307 17.3791V18.5073H91.0331V17.3791H90.0307ZM90.5319 18.0125H82.1111V19.0022H90.5319V18.0125ZM81.6098 18.5073V27.2661H82.6123V18.5073H81.6098ZM82.1111 27.761H91.4342V26.7713H82.1111V27.761ZM90.933 27.2661V28.3944H91.9355V27.2661H90.933ZM91.4342 27.8995H80.7577V28.8892H91.4342V27.8995ZM81.2589 28.3944V7.55149H80.2565V28.3944H81.2589ZM80.7577 8.04633H91.4342V7.05664H80.7577V8.04633ZM90.933 7.55149V8.67973H91.9355V7.55149H90.933ZM91.4342 8.18489H82.1111V9.17457H91.4342V8.18489ZM98.3877 8.67973V8.18489H97.8865V8.67973H98.3877ZM98.3877 17.3791H97.8865V17.8739H98.3877V17.3791ZM106.809 17.3791H107.31V16.8843H106.809V17.3791ZM106.809 18.5073V19.0022H107.31V18.5073H106.809ZM98.3877 18.5073V18.0125H97.8865V18.5073H98.3877ZM98.3877 27.2661H97.8865V27.761H98.3877V27.2661ZM107.711 27.2661H108.212V26.7713H107.711V27.2661ZM107.711 28.3944V28.8892H108.212V28.3944H107.711ZM97.0343 28.3944H96.5331V28.8892H97.0343V28.3944ZM97.0343 7.55149V7.05664H96.5331V7.55149H97.0343ZM107.711 7.55149H108.212V7.05664H107.711V7.55149ZM107.711 8.67973V9.17457H108.212V8.67973H107.711ZM97.8865 8.67973V17.3791H98.8889V8.67973H97.8865ZM98.3877 17.8739H106.809V16.8843H98.3877V17.8739ZM106.307 17.3791V18.5073H107.31V17.3791H106.307ZM106.809 18.0125H98.3877V19.0022H106.809V18.0125ZM97.8865 18.5073V27.2661H98.8889V18.5073H97.8865ZM98.3877 27.761H107.711V26.7713H98.3877V27.761ZM107.21 27.2661V28.3944H108.212V27.2661H107.21ZM107.711 27.8995H97.0343V28.8892H107.711V27.8995ZM97.5356 28.3944V7.55149H96.5331V28.3944H97.5356ZM97.0343 8.04633H107.711V7.05664H97.0343V8.04633ZM107.21 7.55149V8.67973H108.212V7.55149H107.21ZM107.711 8.18489H98.3877V9.17457H107.711V8.18489Z" fill="#F37021"/>
<path d="M68.0416 35.2339V36.0663H63.5644V39.8118H67.3438V40.6441H63.5644V45.265H62.5469V35.2339H68.0416ZM75.1229 45.265L72.6082 41.0747H70.733V45.265H69.7155V35.2339H72.7682C73.902 35.2339 74.7595 35.5018 75.341 36.0376C75.932 36.5734 76.2277 37.2765 76.2277 38.1471C76.2277 38.8743 76.0145 39.496 75.5881 40.0127C75.1714 40.5197 74.5511 40.8498 73.7275 41.0029L76.344 45.265H75.1229ZM70.733 40.2566H72.7826C73.5773 40.2566 74.1733 40.0653 74.5706 39.6826C74.9776 39.3 75.181 38.7881 75.181 38.1471C75.181 37.487 74.9872 36.9799 74.5996 36.626C74.212 36.2625 73.6015 36.0807 72.7682 36.0807H70.733V40.2566ZM84.1341 42.8828H79.5116L78.6248 45.265H77.5491L81.2559 35.3631H82.4042L86.0964 45.265H85.0207L84.1341 42.8828ZM83.8288 42.0504L81.8228 36.626L79.8169 42.0504H83.8288ZM97.6575 35.3631V45.265H96.64V37.3578L93.0641 45.265H92.3228L88.7469 37.3866V45.265H87.7294V35.3631H88.805L92.6862 43.9447L96.5673 35.3631H97.6575ZM100.983 36.052V39.7974H104.835V40.6297H100.983V44.4327H105.271V45.265H99.9658V35.2197H105.271V36.052H100.983ZM110.358 45.3654C109.689 45.3654 109.098 45.2506 108.585 45.021C108.081 44.7914 107.683 44.4709 107.393 44.0595C107.102 43.6482 106.947 43.1889 106.928 42.6819H108.003C108.052 43.1698 108.27 43.6003 108.657 43.9735C109.045 44.337 109.612 44.5187 110.358 44.5187C111.046 44.5187 111.589 44.3465 111.986 44.0021C112.393 43.6482 112.597 43.2033 112.597 42.6676C112.597 42.237 112.485 41.8926 112.262 41.6343C112.039 41.3664 111.763 41.1703 111.434 41.0459C111.104 40.912 110.649 40.7685 110.067 40.6154C109.389 40.4337 108.851 40.2566 108.454 40.0844C108.056 39.9122 107.717 39.6443 107.436 39.2808C107.155 38.9173 107.015 38.4246 107.015 37.8027C107.015 37.2861 107.15 36.8268 107.422 36.425C107.693 36.0136 108.076 35.6932 108.57 35.4635C109.064 35.2339 109.631 35.1191 110.271 35.1191C111.211 35.1191 111.967 35.3487 112.538 35.808C113.12 36.2576 113.454 36.8412 113.541 37.5588H112.437C112.369 37.1473 112.141 36.7838 111.754 36.4681C111.366 36.1428 110.843 35.9802 110.184 35.9802C109.573 35.9802 109.064 36.1428 108.657 36.4681C108.25 36.7838 108.047 37.2191 108.047 37.774C108.047 38.195 108.158 38.5346 108.381 38.7929C108.604 39.0512 108.88 39.2473 109.21 39.3812C109.549 39.5152 110.004 39.6587 110.576 39.8118C111.235 39.9936 111.768 40.1753 112.175 40.3571C112.582 40.5293 112.926 40.7972 113.207 41.1607C113.488 41.5242 113.629 42.0122 113.629 42.6244C113.629 43.0932 113.503 43.5382 113.251 43.9591C112.999 44.38 112.626 44.7196 112.131 44.978C111.637 45.2362 111.046 45.3654 110.358 45.3654Z" fill="#F37021"/>
<path d="M68.0389 35.2346H68.5401V34.7398H68.0389V35.2346ZM68.0389 36.067V36.5618H68.5401V36.067H68.0389ZM63.5617 36.067V35.5721H63.0605V36.067H63.5617ZM63.5617 39.8125H63.0605V40.3073H63.5617V39.8125ZM67.3411 39.8125H67.8423V39.3177H67.3411V39.8125ZM67.3411 40.6448V41.1397H67.8423V40.6448H67.3411ZM63.5617 40.6448V40.15H63.0605V40.6448H63.5617ZM63.5617 45.2657V45.7605H64.063V45.2657H63.5617ZM62.5442 45.2657H62.043V45.7605H62.5442V45.2657ZM62.5442 35.2346V34.7398H62.043V35.2346H62.5442ZM67.5375 35.2346V36.067H68.5401V35.2346H67.5375ZM68.0389 35.5721H63.5617V36.5618H68.0389V35.5721ZM63.0605 36.067V39.8125H64.063V36.067H63.0605ZM63.5617 40.3073H67.3411V39.3177H63.5617V40.3073ZM66.8399 39.8125V40.6448H67.8423V39.8125H66.8399ZM67.3411 40.15H63.5617V41.1397H67.3411V40.15ZM63.0605 40.6448V45.2657H64.063V40.6448H63.0605ZM63.5617 44.7709H62.5442V45.7605H63.5617V44.7709ZM63.0454 45.2657V35.2346H62.043V45.2657H63.0454ZM62.5442 35.7295H68.0389V34.7398H62.5442V35.7295ZM75.1202 45.2657L74.6891 45.5179L74.8346 45.7605H75.1202V45.2657ZM72.6055 41.0754L73.0368 40.8231L72.8911 40.5805H72.6055V41.0754ZM70.7303 41.0754V40.5805H70.2291V41.0754H70.7303ZM70.7303 45.2657V45.7605H71.2317V45.2657H70.7303ZM69.7128 45.2657H69.2116V45.7605H69.7128V45.2657ZM69.7128 35.2346V34.7398H69.2116V35.2346H69.7128ZM75.3383 36.0383L74.9962 36.4001L74.9994 36.4028L75.3383 36.0383ZM73.7249 41.0036L73.632 40.5173L72.9212 40.6493L73.2961 41.26L73.7249 41.0036ZM76.3413 45.2657V45.7605H77.2312L76.7699 45.0092L76.3413 45.2657ZM70.7303 40.2573H70.2291V40.7523H70.7303V40.2573ZM74.568 39.6833L74.2222 39.325L74.2179 39.3292L74.568 39.6833ZM74.597 36.6267L74.2517 36.9855L74.2565 36.99L74.597 36.6267ZM70.7303 36.0814V35.5865H70.2291V36.0814H70.7303ZM75.5515 45.0134L73.0368 40.8231L72.1743 41.3275L74.6891 45.5179L75.5515 45.0134ZM72.6055 40.5805H70.7303V41.5702H72.6055V40.5805ZM70.2291 41.0754V45.2657H71.2317V41.0754H70.2291ZM70.7303 44.7709H69.7128V45.7605H70.7303V44.7709ZM70.2142 45.2657V35.2346H69.2116V45.2657H70.2142ZM69.7128 35.7295H72.7655V34.7398H69.7128V35.7295ZM72.7655 35.7295C73.8262 35.7295 74.5407 35.9803 74.9962 36.4001L75.6803 35.6766C74.973 35.0248 73.9723 34.7398 72.7655 34.7398V35.7295ZM74.9994 36.4028C75.4762 36.835 75.7238 37.4006 75.7238 38.1478H76.7262C76.7262 37.154 76.3827 36.3131 75.6773 35.6737L74.9994 36.4028ZM75.7238 38.1478C75.7238 38.7721 75.5436 39.2807 75.1968 39.7008L75.974 40.326C76.4801 39.7128 76.7262 38.9778 76.7262 38.1478H75.7238ZM75.1968 39.7008C74.8731 40.0946 74.3711 40.3799 73.632 40.5173L73.8175 41.4899C74.7259 41.3211 75.4644 40.9462 75.974 40.326L75.1968 39.7008ZM73.2961 41.26L75.9126 45.5221L76.7699 45.0092L74.1535 40.7471L73.2961 41.26ZM76.3413 44.7709H75.1202V45.7605H76.3413V44.7709ZM70.7303 40.7523H72.7799V39.7625H70.7303V40.7523ZM72.7799 40.7523C73.6488 40.7523 74.393 40.5431 74.9179 40.0376L74.2179 39.3292C73.948 39.589 73.5004 39.7625 72.7799 39.7625V40.7523ZM74.9135 40.0417C75.4356 39.5509 75.6796 38.9014 75.6796 38.1478H74.6771C74.6771 38.6763 74.5143 39.0504 74.2222 39.325L74.9135 40.0417ZM75.6796 38.1478C75.6796 37.3889 75.4534 36.7347 74.9374 36.2634L74.2565 36.99C74.5158 37.2266 74.6771 37.5865 74.6771 38.1478H75.6796ZM74.9422 36.2679C74.421 35.7792 73.6581 35.5865 72.7655 35.5865V36.5762C73.5396 36.5762 73.9976 36.7471 74.2517 36.9855L74.9422 36.2679ZM72.7655 35.5865H70.7303V36.5762H72.7655V35.5865ZM70.2291 36.0814V40.2573H71.2317V36.0814H70.2291ZM84.1314 42.8835L84.6018 42.7128L84.4812 42.3886H84.1314V42.8835ZM79.5089 42.8835V42.3886H79.1591L79.0384 42.7128L79.5089 42.8835ZM78.6221 45.2657V45.7605H78.9721L79.0927 45.4363L78.6221 45.2657ZM77.5465 45.2657L77.0764 45.0941L76.8269 45.7605H77.5465V45.2657ZM81.2533 35.3638V34.869H80.9041L80.7831 35.1923L81.2533 35.3638ZM82.4015 35.3638L82.8719 35.1929L82.7512 34.869H82.4015V35.3638ZM86.0937 45.2657V45.7605H86.8123L86.5641 45.0947L86.0937 45.2657ZM85.0181 45.2657L84.5475 45.4363L84.6683 45.7605H85.0181V45.2657ZM83.8261 42.0511V42.546H84.5427L84.2969 41.8814L83.8261 42.0511ZM81.8201 36.6267L82.291 36.457L81.8201 35.1838L81.3493 36.457L81.8201 36.6267ZM79.8142 42.0511L79.3433 41.8814L79.0976 42.546H79.8142V42.0511ZM84.1314 42.3886H79.5089V43.3783H84.1314V42.3886ZM79.0384 42.7128L78.1517 45.095L79.0927 45.4363L79.9793 43.0541L79.0384 42.7128ZM78.6221 44.7709H77.5465V45.7605H78.6221V44.7709ZM78.0167 45.4372L81.7233 35.5354L80.7831 35.1923L77.0764 45.0941L78.0167 45.4372ZM81.2533 35.8587H82.4015V34.869H81.2533V35.8587ZM81.9312 35.5348L85.6233 45.4366L86.5641 45.0947L82.8719 35.1929L81.9312 35.5348ZM86.0937 44.7709H85.0181V45.7605H86.0937V44.7709ZM85.4885 45.095L84.6018 42.7128L83.6608 43.0541L84.5475 45.4363L85.4885 45.095ZM84.2969 41.8814L82.291 36.457L81.3493 36.7964L83.3552 42.2208L84.2969 41.8814ZM81.3493 36.457L79.3433 41.8814L80.285 42.2208L82.291 36.7964L81.3493 36.457ZM79.8142 42.546H83.8261V41.5563H79.8142V42.546ZM97.6549 35.3638H98.1561V34.869H97.6549V35.3638ZM97.6549 45.2657V45.7605H98.1561V45.2657H97.6549ZM96.6374 45.2657H96.1361V45.7605H96.6374V45.2657ZM96.6374 37.3585H97.1386L96.1796 37.1568L96.6374 37.3585ZM93.0614 45.2657V45.7605H93.3866L93.5192 45.4674L93.0614 45.2657ZM92.3202 45.2657L91.8627 45.4681L91.9955 45.7605H92.3202V45.2657ZM88.7442 37.3873L89.2016 37.1849L88.243 37.3873H88.7442ZM88.7442 45.2657V45.7605H89.2455V45.2657H88.7442ZM87.7267 45.2657H87.2255V45.7605H87.7267V45.2657ZM87.7267 35.3638V34.869H87.2255V35.3638H87.7267ZM88.8024 35.3638L89.2601 35.162L89.1275 34.869H88.8024V35.3638ZM92.6836 43.9454L92.2258 44.1472L92.6836 45.1592L93.1412 44.1472L92.6836 43.9454ZM96.5647 35.3638V34.869H96.2395L96.107 35.162L96.5647 35.3638ZM97.1536 35.3638V45.2657H98.1561V35.3638H97.1536ZM97.6549 44.7709H96.6374V45.7605H97.6549V44.7709ZM97.1386 45.2657V37.3585H96.1361V45.2657H97.1386ZM96.1796 37.1568L92.6038 45.0639L93.5192 45.4674L97.095 37.5603L96.1796 37.1568ZM93.0614 44.7709H92.3202V45.7605H93.0614V44.7709ZM92.7776 45.0633L89.2016 37.1849L88.2868 37.5896L91.8627 45.4681L92.7776 45.0633ZM88.243 37.3873V45.2657H89.2455V37.3873H88.243ZM88.7442 44.7709H87.7267V45.7605H88.7442V44.7709ZM88.2279 45.2657V35.3638H87.2255V45.2657H88.2279ZM87.7267 35.8587H88.8024V34.869H87.7267V35.8587ZM88.3447 35.5656L92.2258 44.1472L93.1412 43.7437L89.2601 35.162L88.3447 35.5656ZM93.1412 44.1472L97.0223 35.5656L96.107 35.162L92.2258 43.7437L93.1412 44.1472ZM96.5647 35.8587H97.6549V34.869H96.5647V35.8587ZM100.981 36.0527V35.5578H100.479V36.0527H100.981ZM100.981 39.7981H100.479V40.2929H100.981V39.7981ZM104.833 39.7981H105.334V39.3033H104.833V39.7981ZM104.833 40.6304V41.1253H105.334V40.6304H104.833ZM100.981 40.6304V40.1356H100.479V40.6304H100.981ZM100.981 44.4334H100.479V44.9282H100.981V44.4334ZM105.269 44.4334H105.77V43.9385H105.269V44.4334ZM105.269 45.2657V45.7605H105.77V45.2657H105.269ZM99.9632 45.2657H99.4619V45.7605H99.9632V45.2657ZM99.9632 35.2204V34.7255H99.4619V35.2204H99.9632ZM105.269 35.2204H105.77V34.7255H105.269V35.2204ZM105.269 36.0527V36.5476H105.77V36.0527H105.269ZM100.479 36.0527V39.7981H101.482V36.0527H100.479ZM100.981 40.2929H104.833V39.3033H100.981V40.2929ZM104.331 39.7981V40.6304H105.334V39.7981H104.331ZM104.833 40.1356H100.981V41.1253H104.833V40.1356ZM100.479 40.6304V44.4334H101.482V40.6304H100.479ZM100.981 44.9282H105.269V43.9385H100.981V44.9282ZM104.768 44.4334V45.2657H105.77V44.4334H104.768ZM105.269 44.7709H99.9632V45.7605H105.269V44.7709ZM100.464 45.2657V35.2204H99.4619V45.2657H100.464ZM99.9632 35.7152H105.269V34.7255H99.9632V35.7152ZM104.768 35.2204V36.0527H105.77V35.2204H104.768ZM105.269 35.5578H100.981V36.5476H105.269V35.5578ZM108.582 45.0217L108.372 45.471L108.375 45.4725L108.582 45.0217ZM106.925 42.6826V42.1877H106.404L106.424 42.7013L106.925 42.6826ZM108 42.6826L108.499 42.6343L108.455 42.1877H108V42.6826ZM108.655 43.9742L108.305 44.3284L108.309 44.3329L108.655 43.9742ZM112.26 41.635L111.872 41.9492L111.878 41.9558L112.26 41.635ZM111.431 41.0466L111.24 41.5044L111.252 41.5089L111.431 41.0466ZM110.065 40.6161L109.933 41.0937L109.935 41.0943L110.065 40.6161ZM107.419 36.4257L107.836 36.7003L107.839 36.6957L107.419 36.4257ZM112.536 35.8087L112.219 36.1926L112.227 36.1983L112.536 35.8087ZM113.539 37.5595V38.0543H114.104L114.036 37.5005L113.539 37.5595ZM112.434 37.5595L111.939 37.639L112.008 38.0543H112.434V37.5595ZM111.751 36.4688L111.426 36.846L111.432 36.8506L111.751 36.4688ZM108.655 36.4688L108.964 36.858L108.97 36.8534L108.655 36.4688ZM109.207 39.3819L109.016 39.8396L109.021 39.8414L109.207 39.3819ZM110.573 39.8125L110.708 39.3358L110.705 39.3349L110.573 39.8125ZM112.172 40.3578L111.966 40.8087L111.975 40.8126L112.172 40.3578ZM110.355 44.8713C109.745 44.8713 109.226 44.7666 108.789 44.571L108.375 45.4725C108.965 45.7361 109.628 45.8609 110.355 45.8609V44.8713ZM108.792 44.5724C108.361 44.3761 108.036 44.1099 107.801 43.7771L106.979 44.3434C107.325 44.8334 107.795 45.2081 108.372 45.471L108.792 44.5724ZM107.801 43.7771C107.566 43.4445 107.441 43.0773 107.426 42.6639L106.424 42.7013C106.447 43.302 106.633 43.8532 106.979 44.3434L107.801 43.7771ZM106.925 43.1775H108V42.1877H106.925V43.1775ZM107.502 42.7309C107.563 43.3458 107.841 43.8817 108.305 44.3284L109.005 43.6198C108.693 43.3203 108.535 42.9953 108.499 42.6343L107.502 42.7309ZM108.309 44.3329C108.822 44.8134 109.532 45.0143 110.355 45.0143V44.0246C109.686 44.0246 109.263 43.862 109 43.6154L108.309 44.3329ZM110.355 45.0143C111.128 45.0143 111.801 44.8198 112.314 44.3746L111.653 43.631C111.372 43.8747 110.959 44.0246 110.355 44.0246V45.0143ZM112.314 44.3746C112.829 43.9266 113.095 43.346 113.095 42.6683H112.093C112.093 43.062 111.952 43.371 111.653 43.631L112.314 44.3746ZM113.095 42.6683C113.095 42.1525 112.96 41.6839 112.641 41.3141L111.878 41.9558C112.005 42.1027 112.093 42.3229 112.093 42.6683H113.095ZM112.647 41.3209C112.368 40.9864 112.02 40.7393 111.61 40.5845L111.252 41.5089C111.501 41.6027 111.705 41.748 111.872 41.9492L112.647 41.3209ZM111.622 40.5891C111.263 40.4433 110.784 40.2934 110.194 40.138L109.935 41.0943C110.508 41.245 110.94 41.3822 111.24 41.5044L111.622 40.5891ZM110.196 40.1386C109.529 39.9598 109.018 39.7903 108.653 39.6321L108.25 40.5382C108.679 40.7244 109.244 40.9089 109.933 41.0937L110.196 40.1386ZM108.653 39.6321C108.338 39.4958 108.065 39.2829 107.832 38.9813L107.035 39.5817C107.364 40.0073 107.769 40.3301 108.25 40.5382L108.653 39.6321ZM107.832 38.9813C107.638 38.7304 107.513 38.3553 107.513 37.8034H106.511C106.511 38.4952 106.667 39.1056 107.035 39.5817L107.832 38.9813ZM107.513 37.8034C107.513 37.3774 107.624 37.0151 107.836 36.7003L107.002 36.1512C106.672 36.6401 106.511 37.1963 106.511 37.8034H107.513ZM107.839 36.6957C108.055 36.3689 108.362 36.1064 108.781 35.912L108.354 35.0166C107.784 35.2813 107.326 35.6598 106.999 36.1557L107.839 36.6957ZM108.781 35.912C109.198 35.7183 109.69 35.6147 110.268 35.6147V34.625C109.567 34.625 108.925 34.7511 108.354 35.0166L108.781 35.912ZM110.268 35.6147C111.125 35.6147 111.759 35.823 112.219 36.1926L112.852 35.4249C112.169 34.876 111.291 34.625 110.268 34.625V35.6147ZM112.227 36.1983C112.704 36.5676 112.97 37.0328 113.041 37.6184L114.036 37.5005C113.933 36.6511 113.53 35.9491 112.845 35.4192L112.227 36.1983ZM113.539 37.0646H112.434V38.0543H113.539V37.0646ZM112.929 37.4799C112.838 36.9284 112.532 36.4639 112.07 36.0871L111.432 36.8506C111.744 37.1051 111.895 37.3678 111.939 37.639L112.929 37.4799ZM112.075 36.0918C111.573 35.6703 110.923 35.4861 110.181 35.4861V36.4758C110.757 36.4758 111.153 36.6168 111.426 36.846L112.075 36.0918ZM110.181 35.4861C109.476 35.4861 108.85 35.6761 108.339 36.0842L108.97 36.8534C109.273 36.611 109.665 36.4758 110.181 36.4758V35.4861ZM108.345 36.0797C107.805 36.4981 107.543 37.0829 107.543 37.7747H108.545C108.545 37.3567 108.69 37.0709 108.964 36.858L108.345 36.0797ZM107.543 37.7747C107.543 38.284 107.679 38.7466 107.997 39.1144L108.76 38.4727C108.632 38.3239 108.545 38.1073 108.545 37.7747H107.543ZM107.997 39.1144C108.273 39.4349 108.616 39.6768 109.016 39.8396L109.398 38.9244C109.139 38.8192 108.929 38.6689 108.76 38.4727L107.997 39.1144ZM109.021 39.8414C109.386 39.9854 109.862 40.1347 110.442 40.2901L110.705 39.3349C110.142 39.1842 109.707 39.0463 109.393 38.9225L109.021 39.8414ZM110.439 40.289C111.084 40.4673 111.591 40.6411 111.966 40.8087L112.379 39.907C111.94 39.7109 111.38 39.5212 110.708 39.3358L110.439 40.289ZM111.975 40.8126C112.299 40.9496 112.575 41.1626 112.806 41.4616L113.603 40.8612C113.272 40.4332 112.86 40.1103 112.37 39.9029L111.975 40.8126ZM112.806 41.4616C113.001 41.7139 113.125 42.0849 113.125 42.6251H114.127C114.127 41.941 113.97 41.3361 113.603 40.8612L112.806 41.4616ZM113.125 42.6251C113.125 43.0015 113.025 43.3599 112.817 43.7081L113.68 44.2115C113.975 43.7177 114.127 43.1864 114.127 42.6251H113.125ZM112.817 43.7081C112.617 44.0406 112.317 44.3201 111.894 44.5414L112.363 45.416C112.928 45.1206 113.375 44.7209 113.68 44.2115L112.817 43.7081ZM111.894 44.5414C111.487 44.7541 110.98 44.8713 110.355 44.8713V45.8609C111.107 45.8609 111.782 45.7198 112.363 45.416L111.894 44.5414Z" fill="#F37021"/>
</svg>
